<svg id="bae1fb04-0099-46e9-84f9-3ff666d4cbf8" data-name="art" xmlns="http://www.w3.org/2000/svg" viewBox="0 0 64 64"><defs><style>.a3bdeb44-7bce-485e-85d1-584efa53dc44{fill:none;stroke:#555;stroke-miterlimit:10;}</style></defs><circle class="a3bdeb44-7bce-485e-85d1-584efa53dc44" cx="40.25" cy="29.44" r="7.23"/><line class="a3bdeb44-7bce-485e-85d1-584efa53dc44" x1="48.39" y1="37.58" x2="45.67" y2="34.86"/><rect class="a3bdeb44-7bce-485e-85d1-584efa53dc44" x="48.92" y="36.83" width="2.56" height="5.11" transform="translate(-13.15 47.03) rotate(-45)"/><rect class="a3bdeb44-7bce-485e-85d1-584efa53dc44" x="15.5" y="14.5" width="28" height="35" rx="3.94"/><path class="a3bdeb44-7bce-485e-85d1-584efa53dc44" d="M19.06,20.36c-.13-2.23.75-4.23,2-4.47s2.32,1.37,2.46,3.6S23,25.67,21.8,25.91s-2.6-3.32-2.74-5.55"/><path class="a3bdeb44-7bce-485e-85d1-584efa53dc44" d="M22.71,34.52c-1.43-2.42-1.53-5.07-.21-5.91s3.56.45,5,2.87,3,7.11,1.65,7.94-5-2.48-6.44-4.9"/><path class="a3bdeb44-7bce-485e-85d1-584efa53dc44" d="M33.36,45.68c-2.2-1.25-3.51-2.92-2.93-3.74s2.84-.47,5,.78,5.53,3.93,5,4.75-4.87-.54-7.06-1.79"/></svg>