<svg id="e38c443b-7433-4e05-8bfe-70651454f8d4" data-name="art" xmlns="http://www.w3.org/2000/svg" viewBox="0 0 64 64"><defs><style>.ba381dbd-4a77-4d50-b755-b63cfd446d63{fill:none;stroke:#555;stroke-linecap:round;stroke-linejoin:round;}</style></defs><path class="ba381dbd-4a77-4d50-b755-b63cfd446d63" d="M39.38,13.21a6.52,6.52,0,0,0-6.52,6.52c0,.21,0,.42,0,.63a.22.22,0,0,1,0,.08c.52,5.21,6.48,10.84,6.48,10.84,4.18-4,5.68-7.52,6.21-9.6a6.08,6.08,0,0,0,.28-1.53c0-.27,0-.42,0-.42A6.52,6.52,0,0,0,39.38,13.21Zm0,9.48a3.17,3.17,0,1,1,3.16-3.17A3.16,3.16,0,0,1,39.38,22.69Z"/><path class="ba381dbd-4a77-4d50-b755-b63cfd446d63" d="M43.72,26.38a6.38,6.38,0,0,0,2.89,2.52c.94-.11,3.22-1.68,2.66.2-.28,3.94-6.66,5.32-5.4,9.42,1.82,3-.93,4.36-2.6,6.2,1,4.15-7.49,10.84-9,3.78-.41-3-3.09-5.21-1.23-8.19.39-2.34-2.55-3.8-2.47-5.78,1.24-3.2-1.77-1.3-2.26-3.09-3.4,0-8.48,2.4-10-2.81-1.65-2.44.75-7.19,3.57-8.7,1.67-4.06,5.67-3.3,9.4-4.07.47.3.27.78.2,1.32.19.92,2.52,1.24,3.45,1.95"/></svg>