<svg id="a5364d2c-62f2-44ac-81a8-d889b502921a" data-name="art" xmlns="http://www.w3.org/2000/svg" viewBox="0 0 64 64"><defs><style>.e4d3afda-245c-4ac0-a259-fa58d5c8549d{fill:none;stroke:#555;stroke-miterlimit:10;}</style></defs><path class="e4d3afda-245c-4ac0-a259-fa58d5c8549d" d="M37.73,20.05c4,1.84,3.63,7.75,7.59,9.26.91-.1,3.14-1.64,2.6.2-.28,3.84-6.51,5.2-5.28,9.2,1.77,2.91-.91,4.25-2.54,6,.95,4.06-7.31,10.6-8.76,3.7-.4-2.93-3-5.09-1.21-8,.39-2.29-2.48-3.71-2.41-5.65,1.22-3.12-1.73-1.27-2.2-3-3.32,0-8.29,2.35-9.76-2.74-1.61-2.38.73-7,3.48-8.49,1.64-4,5.54-3.23,9.18-4,.46.29.27.76.2,1.29.18.89,2.54,2.68,3.38,1.9,1.81-1.68,2.66-.59,5-.05Z"/><circle class="e4d3afda-245c-4ac0-a259-fa58d5c8549d" cx="28.28" cy="33.08" r="8.7"/><circle class="e4d3afda-245c-4ac0-a259-fa58d5c8549d" cx="28.28" cy="33.08" r="4.8"/></svg>