<svg id="b4a1abf1-b80b-41f1-aaaa-542095e23beb" data-name="art" xmlns="http://www.w3.org/2000/svg" viewBox="0 0 64 64"><defs><style>.a1d38e0f-ffa5-4a56-b860-f11721be4684{fill:none;stroke:#555;stroke-linecap:round;stroke-linejoin:round;}</style></defs><line class="a1d38e0f-ffa5-4a56-b860-f11721be4684" x1="28.15" y1="19.11" x2="43.32" y2="19.11"/><line class="a1d38e0f-ffa5-4a56-b860-f11721be4684" x1="28.15" y1="24.58" x2="43.32" y2="24.58"/><circle class="a1d38e0f-ffa5-4a56-b860-f11721be4684" cx="29.55" cy="42.99" r="2.87"/><path class="a1d38e0f-ffa5-4a56-b860-f11721be4684" d="M41.4,30.49c1.86.86,2.09,3.91,4,4.61.43,0,1.47-.76,1.22.1-.13,1.8-3,2.43-2.48,4.31.84,1.37-.42,2-1.19,2.84.45,1.9-3.42,5-4.1,1.73-.19-1.37-1.42-2.38-.57-3.75.18-1.07-1.16-1.74-1.13-2.65.57-1.46-.81-.59-1-1.41-1.56,0-3.89,1.1-4.57-1.29-.76-1.11.34-3.29,1.63-4,.76-1.86,2.59-1.51,4.3-1.86.22.14.12.35.09.6.09.42,1.16.57,1.59.89.81-.76,1.11-.33,2.29-.15"/><path class="a1d38e0f-ffa5-4a56-b860-f11721be4684" d="M12,18.29c.88,1.76.71,3.63-.38,4.17S9,22,8.08,20.25s-1.63-5.11-.54-5.65,3.6,1.94,4.47,3.69"/><path class="a1d38e0f-ffa5-4a56-b860-f11721be4684" d="M16.44,27.51c-1.22,1.3-2.75,2.11-3.43,1.79s-.24-1.64,1-2.95,3.74-3.31,4.42-3-.75,2.84-2,4.15"/><path class="a1d38e0f-ffa5-4a56-b860-f11721be4684" d="M48.86,13.58H23.27A1.29,1.29,0,0,0,22,14.87V27.35a2.32,2.32,0,0,1,2.63.63,2.43,2.43,0,0,1-.88,3.32,7,7,0,0,1-1.75.85V49.37a1.29,1.29,0,0,0,1.29,1.29H48.86a1.29,1.29,0,0,0,1.29-1.29V14.87A1.29,1.29,0,0,0,48.86,13.58Z"/><path class="a1d38e0f-ffa5-4a56-b860-f11721be4684" d="M22,27.35a3,3,0,0,0-.86.44c-1.21.87-2.58,3.25-1.87,4.21.46.61,1.63.52,2.73.15"/><path class="a1d38e0f-ffa5-4a56-b860-f11721be4684" d="M15,15.76c-.73-1.38-.63-2.9.23-3.4s2.16.22,2.89,1.59,1.4,4.07.54,4.56S15.74,17.13,15,15.76"/></svg>