<svg id="af4180df-12a2-43fc-a0b2-ff7852b3102a" data-name="art" xmlns="http://www.w3.org/2000/svg" viewBox="0 0 64 64"><defs><style>.a16e28c8-afe0-43c6-a904-12751a72580a,.b8da34d2-dcfd-4131-b200-60807b9592a8{fill:none;stroke:#555;stroke-linecap:round;stroke-linejoin:round;}.b8da34d2-dcfd-4131-b200-60807b9592a8{stroke-dasharray:1.1 3.29;}</style></defs><path class="a16e28c8-afe0-43c6-a904-12751a72580a" d="M30.74,11.54a6.51,6.51,0,0,0-6.51,6.51c0,.21,0,.42,0,.64,0,0,0,0,0,.07.52,5.21,6.47,10.85,6.47,10.85,4.19-4,5.68-7.52,6.22-9.61a6.36,6.36,0,0,0,.27-1.53c0-.27,0-.42,0-.42A6.52,6.52,0,0,0,30.74,11.54Zm0,9.47a3.16,3.16,0,1,1,3.16-3.16A3.16,3.16,0,0,1,30.74,21Z"/><path class="a16e28c8-afe0-43c6-a904-12751a72580a" d="M22.4,47.74a7.64,7.64,0,0,1,.53-1.19c.56-3.81-3.65-6.19-3.53-9.44,1.22-3.57-1.31-3.24-2.69-3.62"/><path class="a16e28c8-afe0-43c6-a904-12751a72580a" d="M39.66,24a9.7,9.7,0,0,0,4.21,4.16c1.36-.18,4.68-2.77,3.87.34-.41,6.5-9.7,8.79-7.86,15.57A5.87,5.87,0,0,1,40.67,48"/><polyline class="a16e28c8-afe0-43c6-a904-12751a72580a" points="35.53 23.77 47.94 23.77 47.94 48 16.43 48 16.43 23.77 25.89 23.77"/><path class="a16e28c8-afe0-43c6-a904-12751a72580a" d="M22,35.85a2,2,0,0,0,.21.45"/><path class="b8da34d2-dcfd-4131-b200-60807b9592a8" d="M25.16,36.61a14.5,14.5,0,0,0,3.72-3.54c2.51-3.11,6.86.5,9.12,2.78"/><path class="a16e28c8-afe0-43c6-a904-12751a72580a" d="M39.12,37.05l.32.38"/></svg>