<svg id="b1e68430-fc6d-4858-bf93-1a576691fd25" data-name="art" xmlns="http://www.w3.org/2000/svg" viewBox="0 0 64 64"><defs><style>.a19f6dfc-9304-4966-acb2-d0eced06a592{fill:none;stroke:#555;stroke-linecap:round;stroke-linejoin:round;}</style></defs><rect class="a19f6dfc-9304-4966-acb2-d0eced06a592" x="17.62" y="40.28" width="3.03" height="10.06"/><rect class="a19f6dfc-9304-4966-acb2-d0eced06a592" x="11.62" y="33.44" width="3.03" height="16.91"/><rect class="a19f6dfc-9304-4966-acb2-d0eced06a592" x="23.62" y="44.23" width="3.03" height="6.12"/><path class="a19f6dfc-9304-4966-acb2-d0eced06a592" d="M42,28.23a6.16,6.16,0,0,0,2.93,2.13c.85-.09,2.92-1.52,2.42.19-.26,3.58-6.07,4.84-4.92,8.57,1.65,2.7-.84,4-2.36,5.63.88,3.78-6.81,9.86-8.16,3.44-.37-2.72-2.81-4.73-1.12-7.45.35-2.12-2.32-3.45-2.25-5.26,1.13-2.9-1.61-1.18-2.05-2.81-3.09,0-7.71,2.19-9.08-2.55-1.51-2.22.68-6.54,3.24-7.91,1.52-3.7,5.16-3,8.55-3.7.42.27.24.71.18,1.2.17.83,2.29,1.13,3.14,1.77"/><path class="a19f6dfc-9304-4966-acb2-d0eced06a592" d="M35.17,15.23c.85,1.17,1,2.57.27,3.11s-2,0-2.81-1.14-1.82-3.53-1.12-4.07,2.81.93,3.66,2.1"/><path class="a19f6dfc-9304-4966-acb2-d0eced06a592" d="M40.78,21c-1.34,1.43-2.89,2.26-3.46,1.86s.07-1.88,1.42-3.31,4-3.59,4.57-3.18-1.19,3.2-2.53,4.63"/><path class="a19f6dfc-9304-4966-acb2-d0eced06a592" d="M45.28,22.14a2.41,2.41,0,0,1,3.13,1.13,2.31,2.31,0,0,1-1.73,2.79c-1.34.46-3.89.49-4.28-.6s1.53-2.87,2.88-3.32"/><path class="a19f6dfc-9304-4966-acb2-d0eced06a592" d="M41.05,10.71c.7,1.58.47,3.11-.51,3.42s-2.33-.72-3-2.3S36.31,7.35,37.28,7s3.08,2.09,3.77,3.67"/></svg>