<svg id="b6db34c7-f6d8-4833-87b3-2c30a26cc1ad" data-name="art" xmlns="http://www.w3.org/2000/svg" viewBox="0 0 64 64"><defs><style>.fb8ba2a7-7dbf-406a-92f9-646257b5085a{fill:none;stroke:#555;stroke-linecap:round;stroke-linejoin:round;}</style></defs><rect class="fb8ba2a7-7dbf-406a-92f9-646257b5085a" x="19.5" y="17.21" width="24.66" height="32.46" rx="1.13" transform="translate(0.18 -0.17) rotate(0.3)"/><line class="fb8ba2a7-7dbf-406a-92f9-646257b5085a" x1="24.6" y1="40.38" x2="39.02" y2="40.38"/><line class="fb8ba2a7-7dbf-406a-92f9-646257b5085a" x1="24.6" y1="45.03" x2="39.02" y2="45.03"/><line class="fb8ba2a7-7dbf-406a-92f9-646257b5085a" x1="24.27" y1="21" x2="27.24" y2="21"/><path class="fb8ba2a7-7dbf-406a-92f9-646257b5085a" d="M30.55,26c1.38.65,1.56,2.92,2.94,3.45.32,0,1.1-.58.91.07-.09,1.34-2.28,1.82-1.84,3.22.62,1-.32,1.49-.89,2.12.33,1.42-2.56,3.71-3.07,1.29-.14-1-1.06-1.78-.42-2.8.13-.8-.87-1.3-.85-2,.43-1.09-.6-.44-.77-1.05-1.16,0-2.9.82-3.41-1-.57-.83.25-2.45,1.22-3,.57-1.39,1.93-1.13,3.21-1.39.16.1.09.27.07.45s.86.43,1.18.67c.61-.57.83-.25,1.71-.12"/><circle class="fb8ba2a7-7dbf-406a-92f9-646257b5085a" cx="43.47" cy="22.31" r="9.24"/><circle class="fb8ba2a7-7dbf-406a-92f9-646257b5085a" cx="43.47" cy="22.31" r="5.1"/></svg>