<?xml version="1.0" encoding="utf-8"?>
<!-- Generator: Adobe Illustrator 26.0.2, SVG Export Plug-In . SVG Version: 6.00 Build 0)  -->
<svg version="1.1" id="af4180df-12a2-43fc-a0b2-ff7852b3102a"
	 xmlns="http://www.w3.org/2000/svg" xmlns:xlink="http://www.w3.org/1999/xlink" x="0px" y="0px" viewBox="0 0 64 64"
	 style="enable-background:new 0 0 64 64;" xml:space="preserve">
<style type="text/css">
	.st0{fill:none;stroke:#555555;stroke-linecap:round;stroke-linejoin:round;stroke-miterlimit:10;}
</style>
<path class="st0" d="M29.4,39.5c-0.9,0.7,0.3,3.6,1.4,5.1c1.1,1.5,2.7,2.1,3.6,1.4c0.9-0.7,0.7-2.4-0.4-3.9
	C33,40.7,30.3,38.8,29.4,39.5z"/>
<path class="st0" d="M39.4,44.7c-1.3,1.4-1.9,2.8-1.4,3.2c0.6,0.4,2.1-0.4,3.4-1.8c1.3-1.4,3-4.1,2.5-4.5
	C43.3,41.2,40.7,43.3,39.4,44.7z"/>
<path class="st0" d="M45.5,38.1c0.7-1-0.2-2.6-2-3.6c-1.8-1-5.6-1.7-6.2-0.7c-0.7,1,1.9,3.4,3.7,4.3C42.7,39.2,44.8,39.2,45.5,38.1z
	"/>
<path class="st0" d="M15,29.3v19.6c0,1.1,0.8,1.9,1.7,1.9h31.5c1,0,1.8-0.9,1.8-1.9V29.3H15z"/>
<g>
	<path class="st0" d="M48.8,17.7h-4.3V20c0,1.3-1,2.3-2.3,2.3c-1.3,0-2.3-1-2.3-2.3v-2.3H25.1V20c0,1.3-1,2.3-2.3,2.3
		s-2.3-1-2.3-2.3v-2.3h-4.3c-0.7,0.2-1.2,1-1.2,1.8v6.2h35v-6.2C50,18.7,49.5,18,48.8,17.7z"/>
	<path class="st0" d="M25.1,17.7v-2.3c0-1.3-1-2.3-2.3-2.3s-2.3,1-2.3,2.3v2.3"/>
	<path class="st0" d="M20.5,17.7V20c0,1.3,1,2.3,2.3,2.3s2.3-1,2.3-2.3v-2.3"/>
	<path class="st0" d="M44.5,17.7v-2.3c0-1.3-1-2.3-2.3-2.3c-1.3,0-2.3,1-2.3,2.3v2.3"/>
	<path class="st0" d="M39.9,17.7V20c0,1.3,1,2.3,2.3,2.3c1.3,0,2.3-1,2.3-2.3v-2.3"/>
</g>
</svg>
