<svg id="f42291c4-8c0d-48d9-9350-7a5cc1228249" data-name="art" xmlns="http://www.w3.org/2000/svg" viewBox="0 0 64 64"><defs><style>.b8091eff-c377-4ac3-8eb0-3e1417b65c14{fill:none;stroke:#555;stroke-miterlimit:10;}</style></defs><path class="b8091eff-c377-4ac3-8eb0-3e1417b65c14" d="M41.62,20.22c-.78,2-2.22,2.37-3.32,1.73s-1.56-1.85-.78-3.85,2.89-5,4-4.42.86,4.54.08,6.54"/><path class="b8091eff-c377-4ac3-8eb0-3e1417b65c14" d="M50.43,23c1.94-.92,3.24-.2,3.6,1S53.9,26.39,52,27.32s-5.53,1.67-6,.46,2.49-3.9,4.43-4.82"/><circle class="b8091eff-c377-4ac3-8eb0-3e1417b65c14" cx="49.05" cy="15.03" r="2.42"/><path class="b8091eff-c377-4ac3-8eb0-3e1417b65c14" d="M50.56,28V44.1a2.4,2.4,0,0,1-2.4,2.4H14a2.41,2.41,0,0,1-2.41-2.4V17.4A2.41,2.41,0,0,1,14,15H39.06"/><path class="b8091eff-c377-4ac3-8eb0-3e1417b65c14" d="M44.23,33.34a15.4,15.4,0,0,1,1.41,13.3"/><path class="b8091eff-c377-4ac3-8eb0-3e1417b65c14" d="M16.48,46.64A15.48,15.48,0,0,1,39.16,28.28"/><line class="b8091eff-c377-4ac3-8eb0-3e1417b65c14" x1="32.69" y1="39.85" x2="43.44" y2="29.1"/><circle class="b8091eff-c377-4ac3-8eb0-3e1417b65c14" cx="31.06" cy="41.48" r="2.06"/></svg>