<svg id="abe43350-297a-45d3-b5a9-7ed4cb16f9e2" data-name="art" xmlns="http://www.w3.org/2000/svg" viewBox="0 0 64 64"><defs><style>.a69c02ba-1723-440f-b306-66a3ba367b9b,.b7436201-a94e-48a6-b167-fa5819437965,.e3f2538e-a2ea-4116-b0d1-2d3634aac6d9{fill:none;stroke:#555;}.b7436201-a94e-48a6-b167-fa5819437965{stroke-miterlimit:10;}.a69c02ba-1723-440f-b306-66a3ba367b9b,.e3f2538e-a2ea-4116-b0d1-2d3634aac6d9{stroke-linecap:round;stroke-linejoin:round;}.e3f2538e-a2ea-4116-b0d1-2d3634aac6d9{fill-rule:evenodd;}</style></defs><circle class="b7436201-a94e-48a6-b167-fa5819437965" cx="16.54" cy="40.27" r="2.57"/><path class="b7436201-a94e-48a6-b167-fa5819437965" d="M20.65,47a4.17,4.17,0,1,0-8.34,0v2h8.34Z"/><circle class="b7436201-a94e-48a6-b167-fa5819437965" cx="32.22" cy="40.27" r="2.57"/><path class="b7436201-a94e-48a6-b167-fa5819437965" d="M36.32,47A4.17,4.17,0,0,0,28,47v2h8.34Z"/><circle class="b7436201-a94e-48a6-b167-fa5819437965" cx="47.9" cy="40.27" r="2.57"/><path class="b7436201-a94e-48a6-b167-fa5819437965" d="M52,47a4.17,4.17,0,1,0-8.34,0v2H52Z"/><polygon class="e3f2538e-a2ea-4116-b0d1-2d3634aac6d9" points="48 23.13 32.37 14.11 16.74 23.13 16.74 25.85 48 25.85 48 23.13"/><line class="a69c02ba-1723-440f-b306-66a3ba367b9b" x1="20.51" y1="26.24" x2="20.51" y2="33.56"/><line class="a69c02ba-1723-440f-b306-66a3ba367b9b" x1="28.3" y1="26.24" x2="28.3" y2="33.56"/><line class="a69c02ba-1723-440f-b306-66a3ba367b9b" x1="36.09" y1="26.24" x2="36.09" y2="33.56"/><line class="a69c02ba-1723-440f-b306-66a3ba367b9b" x1="43.88" y1="26.24" x2="43.88" y2="33.56"/><polyline class="e3f2538e-a2ea-4116-b0d1-2d3634aac6d9" points="47.99 36.77 47.99 34.09 16.75 34.09 16.75 36.77"/></svg>