<?xml version="1.0" encoding="utf-8"?>
<!-- Generator: Adobe Illustrator 26.0.2, SVG Export Plug-In . SVG Version: 6.00 Build 0)  -->
<svg version="1.1" id="f42291c4-8c0d-48d9-9350-7a5cc1228249"
	 xmlns="http://www.w3.org/2000/svg" xmlns:xlink="http://www.w3.org/1999/xlink" x="0px" y="0px" viewBox="0 0 64 64"
	 style="enable-background:new 0 0 64 64;" xml:space="preserve">
<style type="text/css">
	.st0{fill:none;stroke:#FFFFFF;stroke-linecap:round;stroke-linejoin:round;stroke-miterlimit:10;}
</style>
<g>
	<polygon class="st0" points="49.4,24.6 38.9,14 18.6,14 18.6,53.8 49.4,53.8 	"/>
	<polyline class="st0" points="38.9,14 38.9,24.6 49.4,24.6 	"/>
	<polygon class="st0" points="18.6,14 38.9,14 45.7,20.8 45.7,10.3 14.9,10.3 14.9,50.1 18.6,50.1 	"/>
	<line class="st0" x1="32.2" y1="30.6" x2="44.2" y2="30.6"/>
	<polyline class="st0" points="29.9,28.3 26.2,31.3 24.7,29.8 	"/>
	<line class="st0" x1="32.2" y1="38.8" x2="44.2" y2="38.8"/>
	<polyline class="st0" points="29.9,36.6 26.2,39.6 24.7,38.1 	"/>
	<line class="st0" x1="32.2" y1="47.1" x2="44.2" y2="47.1"/>
	<polyline class="st0" points="29.9,44.8 26.2,47.8 24.7,46.3 	"/>
</g>
</svg>
