<svg id="aa0f034d-6a8e-449a-9a77-2750ba778c90" data-name="art" xmlns="http://www.w3.org/2000/svg" viewBox="0 0 64 64"><defs><style>.a8ae2151-726d-4c9e-b74b-3605508336e4{fill:none;stroke:#555;stroke-linecap:round;stroke-linejoin:round;}</style></defs><path class="a8ae2151-726d-4c9e-b74b-3605508336e4" d="M15.38,48.15a6.4,6.4,0,0,1,6.11-1.5c4.19.94,8.41,1.55,12.72.77C36.51,47,39,47.1,41.1,46.2c4-1.74,7.79-4,11.66-6.09,1.55-.83,2.08-1.87,1.47-3-.75-1.35-1.9-1.24-3.14-.75-2.8,1.1-5.59,2.26-8.44,3.24a8.48,8.48,0,0,1-3.68.51c-3.64-.48-7.25-1.16-10.86-1.86-.56-.1-1-.7-1.54-1.07a5.51,5.51,0,0,1,1.72-.88c2.78-.29,5.57-.48,8.36-.67,1.24-.09,2-.67,2-1.92s-.8-1.7-2-1.76c-2.14-.11-4.27-.28-6.92-.46-3.32-.26-7.21-.74-10.72,1.39-3.8,2.29-7.55,4.67-11.29,7.06a30.3,30.3,0,0,0,5.33,9.78,3.19,3.19,0,0,0,.88-.48A17.07,17.07,0,0,0,15.38,48.15Z"/><path class="a8ae2151-726d-4c9e-b74b-3605508336e4" d="M30.57,20.17c-.93.7.36,3.73,1.49,5.24s2.8,2.16,3.73,1.46.77-2.49-.36-4S31.5,19.47,30.57,20.17Z"/><path class="a8ae2151-726d-4c9e-b74b-3605508336e4" d="M39.87,25.45c-1.35,1.43-2,2.92-1.42,3.32s2.12-.43,3.47-1.86,3.11-4.25,2.54-4.65S41.22,24,39.87,25.45Z"/><path class="a8ae2151-726d-4c9e-b74b-3605508336e4" d="M48.35,26.59c-1.58,1-3.55,3.63-2.8,4.52s4-.25,5.54-1.28,2.25-2.6,1.5-3.49S49.93,25.55,48.35,26.59Z"/><path class="a8ae2151-726d-4c9e-b74b-3605508336e4" d="M47.07,18.76c.72-1-.22-2.7-2.09-3.71s-5.71-1.75-6.42-.71,2,3.45,3.84,4.47S46.36,19.79,47.07,18.76Z"/></svg>