<?xml version="1.0" encoding="utf-8"?>
<!-- Generator: Adobe Illustrator 26.0.2, SVG Export Plug-In . SVG Version: 6.00 Build 0)  -->
<svg version="1.1" id="f42291c4-8c0d-48d9-9350-7a5cc1228249"
	 xmlns="http://www.w3.org/2000/svg" xmlns:xlink="http://www.w3.org/1999/xlink" x="0px" y="0px" viewBox="0 0 64 64"
	 style="enable-background:new 0 0 64 64;" xml:space="preserve">
<style type="text/css">
	.st0{fill:none;stroke:#FFFFFF;stroke-linecap:round;stroke-linejoin:round;stroke-miterlimit:10;}
</style>
<g>
	<path class="st0" d="M44.4,44.4L37.7,41c-0.9-0.4-1.4-1.3-1.4-2.3v-2.6c0.2-0.2,0.4-0.5,0.6-0.8c0.9-1.3,1.6-2.7,2.1-4.2
		c0.9-0.3,1.5-1.1,1.5-2v-2.8c0-0.6-0.3-1.2-0.7-1.5v-4c0,0,0.8-6.3-7.7-6.3s-7.7,6.3-7.7,6.3v4c-0.4,0.4-0.7,0.9-0.7,1.5v2.8
		c0,0.7,0.4,1.4,1,1.8c0.7,3,2.5,5.2,2.5,5.2v2.6c0,0.9-0.5,1.8-1.3,2.2l-6.2,3.4c-1.8,1-2.9,2.9-2.9,4.9v2.3h30.7v-2.1
		C47.5,47.3,46.3,45.3,44.4,44.4z"/>
	<path class="st0" d="M54.5,45.2l-6.8-3c-0.4-0.2-0.7-0.6-0.9-1s0.1-0.8,0.5-0.8h4.8c0,0,1.8,0.2,3.1-0.4c0.8-0.3,1.1-1.3,0.6-2.1
		c-1.5-2.1-4.5-7-4.6-12c0,0-0.2-7.8-7.8-7.8c-1.5,0-2.8,0.3-3.8,0.8c0.3,1,0.2,1.9,0.2,1.9v4c0.4,0.4,0.7,0.9,0.7,1.5v2.8
		c0,0.9-0.6,1.7-1.5,2c-0.5,1.5-1.2,2.9-2.1,4.2c-0.2,0.3-0.4,0.6-0.6,0.8v2.6c0,0.6,0.2,1.2,0.6,1.6h1.9c0.5,0,0.7,0.6,0.3,0.9
		c-0.1,0.1-0.3,0.2-0.4,0.3l5.6,2.8c1.9,0.9,3.1,2.9,3.1,5v2.1h9.8v-1.9C57.2,47.7,56.2,46,54.5,45.2z"/>
	<path class="st0" d="M19.8,44.5l4.2-2.3l0,0l2-1.1c0.8-0.4,1.3-1.3,1.3-2.2v-2.6c0,0-0.7-0.9-1.5-2.3l0,0l0,0
		c-0.1-0.2-0.2-0.4-0.3-0.6v-0.1c-0.1-0.2-0.2-0.4-0.3-0.7l0,0c-0.1-0.2-0.1-0.4-0.2-0.6c0-0.1,0-0.1-0.1-0.2
		c-0.1-0.2-0.1-0.5-0.2-0.7c-0.6-0.4-1-1-1-1.8v-2.8c0-0.6,0.3-1.2,0.7-1.5v-4c-1-0.8-2.5-1.5-4.9-1.5c-6.7,0-7,5.6-7,5.6v3.5
		c-0.4,0.3-0.7,0.8-0.7,1.3v2.4c0,0.6,0.3,1.2,0.8,1.5c0.6,2.6,2.6,4.5,2.6,4.5v2.2c0,0.8-0.4,1.5-1.1,1.9l-4.7,2.9
		c-1.6,0.8-2.5,2.5-2.5,4.2v2h9.8v-2.3C16.9,47.3,18,45.4,19.8,44.5z"/>
</g>
</svg>
