<?xml version="1.0" encoding="utf-8"?>
<!-- Generator: Adobe Illustrator 26.0.2, SVG Export Plug-In . SVG Version: 6.00 Build 0)  -->
<svg version="1.1" id="af4180df-12a2-43fc-a0b2-ff7852b3102a"
	 xmlns="http://www.w3.org/2000/svg" xmlns:xlink="http://www.w3.org/1999/xlink" x="0px" y="0px" viewBox="0 0 64 64"
	 style="enable-background:new 0 0 64 64;" xml:space="preserve">
<style type="text/css">
	.st0{fill:none;stroke:#FFFFFF;stroke-linecap:round;stroke-linejoin:round;stroke-miterlimit:10;}
</style>
<g>
	<path class="st0" d="M25.2,18.2c0-1.2,1-2.3,2.3-2.3s2.3,1,2.3,2.3c0,1.2-1,2.3-2.3,2.3"/>
	<path class="st0" d="M30.8,20.5c1.2,0,2.3-1,2.3-2.3c0-1.2-1-2.3-2.3-2.3"/>
	<path class="st0" d="M34.2,20.5c1.2,0,2.3-1,2.3-2.3c0-1.2-1-2.3-2.3-2.3"/>
	<path class="st0" d="M37.6,20.5c1.2,0,2.3-1,2.3-2.3c0-1.2-1-2.3-2.3-2.3"/>
	<line class="st0" x1="26.9" y1="18.2" x2="25.2" y2="18.2"/>
	<polyline class="st0" points="39.8,18.2 46.6,18.2 46.6,41.3 39.8,48.1 18.4,48.1 18.4,18.2 25.2,18.2 	"/>
	<line class="st0" x1="18.4" y1="25" x2="46.6" y2="25"/>
	<line class="st0" x1="18.4" y1="30.6" x2="46.6" y2="30.6"/>
	<line class="st0" x1="18.4" y1="36.2" x2="46.6" y2="36.2"/>
	<line class="st0" x1="18.4" y1="41.9" x2="37" y2="41.9"/>
	<line class="st0" x1="22.4" y1="22.1" x2="22.4" y2="45.2"/>
	<path class="st0" d="M39.8,47.7v-6.4h6.4c0.1,0,0.2,0.2,0.1,0.3l-6.2,6.2C40,47.9,39.8,47.8,39.8,47.7z"/>
	<rect x="39.8" y="41.3" class="st0" width="6.8" height="6.8"/>
</g>
</svg>
