<?xml version="1.0" encoding="utf-8"?>
<!-- Generator: Adobe Illustrator 26.0.3, SVG Export Plug-In . SVG Version: 6.00 Build 0)  -->
<svg version="1.1" id="af4180df-12a2-43fc-a0b2-ff7852b3102a"
	 xmlns="http://www.w3.org/2000/svg" xmlns:xlink="http://www.w3.org/1999/xlink" x="0px" y="0px" viewBox="0 0 64 64"
	 style="enable-background:new 0 0 64 64;" xml:space="preserve">
<style type="text/css">
	.st0{fill:none;stroke:#FFFFFF;stroke-linecap:round;stroke-linejoin:round;stroke-miterlimit:10;}
</style>
<g>
	<polyline class="st0" points="33.5,47.2 33.5,43 37.7,43 	"/>
	<path class="st0" d="M35.9,37.1c1.3-1.5,3.2-2.4,5.4-2.4c4,0,7.2,3.2,7.2,7.2S45.2,49,41.2,49c-3.5,0-6.6-2.6-7.2-6"/>
	<rect x="19.2" y="15" class="st0" width="4.2" height="4.8"/>
	<rect x="37.7" y="15" class="st0" width="4.2" height="4.8"/>
	<polygon class="st0" points="41.8,17.4 41.8,19.8 37.7,19.8 37.7,17.4 23.4,17.4 23.4,19.8 19.2,19.8 19.2,17.4 15.6,17.4 
		15.6,23.4 45.4,23.4 45.4,17.4 	"/>
	<rect x="19.8" y="27.5" class="st0" width="5.4" height="5.4"/>
	<rect x="19.8" y="32.9" class="st0" width="5.4" height="5.4"/>
	<rect x="19.8" y="38.3" class="st0" width="5.4" height="5.4"/>
	<rect x="25.1" y="27.5" class="st0" width="5.4" height="5.4"/>
	<rect x="25.1" y="32.9" class="st0" width="5.4" height="5.4"/>
	<rect x="25.1" y="38.3" class="st0" width="5.4" height="5.4"/>
	<rect x="30.5" y="27.5" class="st0" width="5.4" height="5.4"/>
	<rect x="35.9" y="27.5" class="st0" width="5.4" height="5.4"/>
	<polyline class="st0" points="45.4,31.7 45.4,17.4 41.8,17.4 41.8,19.8 37.7,19.8 37.7,17.4 23.4,17.4 23.4,19.8 19.2,19.8 
		19.2,17.4 15.6,17.4 15.6,47.8 29.3,47.8 	"/>
</g>
</svg>
