<?xml version="1.0" encoding="utf-8"?>
<!-- Generator: Adobe Illustrator 26.2.1, SVG Export Plug-In . SVG Version: 6.00 Build 0)  -->
<svg version="1.1" id="b1e68430-fc6d-4858-bf93-1a576691fd25"
	 xmlns="http://www.w3.org/2000/svg" xmlns:xlink="http://www.w3.org/1999/xlink" x="0px" y="0px" viewBox="0 0 64 64"
	 style="enable-background:new 0 0 64 64;" xml:space="preserve">
<style type="text/css">
	.st0{fill:none;stroke:#555555;stroke-linecap:round;stroke-linejoin:round;stroke-miterlimit:10;}
</style>
<g>
	<path class="st0" d="M17.2,50.9h-0.3c-1.7,0-3.1-1.4-3.1-3.1V32.7h6.5v15.1C20.3,49.5,18.9,50.9,17.2,50.9z"/>
	<path class="st0" d="M20.3,13.1v22.8v4.6v7.2c0,1.8-1.5,3.3-3.3,3.3h3.3h3.9H47c1.8,0,3.2-1.5,3.2-3.2V13.1H20.3z"/>
	<rect x="24.2" y="23.5" class="st0" width="7.8" height="7.8"/>
	<line class="st0" x1="35.9" y1="23.5" x2="46.3" y2="23.5"/>
	<line class="st0" x1="35.9" y1="27.4" x2="46.3" y2="27.4"/>
	<line class="st0" x1="35.9" y1="31.3" x2="46.3" y2="31.3"/>
	<line class="st0" x1="24.8" y1="35.3" x2="46.3" y2="35.3"/>
	<line class="st0" x1="24.8" y1="39.2" x2="34.6" y2="39.2"/>
	<line class="st0" x1="24.8" y1="43.1" x2="34.6" y2="43.1"/>
	<line class="st0" x1="24.8" y1="47" x2="34.6" y2="47"/>
	<rect x="38.5" y="39.2" class="st0" width="7.8" height="7.8"/>
	<line class="st0" x1="20.3" y1="20.9" x2="50.2" y2="20.9"/>
	<rect x="28.1" y="15.7" class="st0" width="14.3" height="2.6"/>
</g>
</svg>
