<svg id="bfa345a8-30dc-42a8-8c20-99e6c0de7b56" data-name="art" xmlns="http://www.w3.org/2000/svg" viewBox="0 0 64 64"><defs><style>.b87bfcaa-d879-46f4-be40-97605edb197d{fill:none;stroke:#555;stroke-linecap:round;stroke-linejoin:round;}</style></defs><circle class="b87bfcaa-d879-46f4-be40-97605edb197d" cx="29.87" cy="19.03" r="4.03"/><path class="b87bfcaa-d879-46f4-be40-97605edb197d" d="M50.26,21.29c1.23,1.45,1.58,3.34.78,4.21s-2.46.39-3.69-1.06-2.78-4.53-2-5.4,3.65.79,4.88,2.25"/><path class="b87bfcaa-d879-46f4-be40-97605edb197d" d="M46.53,34.87c-.64,1.63-1.81,1.92-2.71,1.4s-1.27-1.5-.63-3.14,2.35-4.08,3.27-3.6.71,3.71.07,5.34"/><circle class="b87bfcaa-d879-46f4-be40-97605edb197d" cx="41.18" cy="24.09" r="1.97"/><path class="b87bfcaa-d879-46f4-be40-97605edb197d" d="M30.19,49.32h-.45a7.54,7.54,0,0,1-7.36-7.68V30.82a7.55,7.55,0,0,1,7.36-7.68h.45a7.55,7.55,0,0,1,7.36,7.68v6.57"/><circle class="b87bfcaa-d879-46f4-be40-97605edb197d" cx="16.27" cy="19.03" r="4.03"/><path class="b87bfcaa-d879-46f4-be40-97605edb197d" d="M16.59,49.32h-.45a7.54,7.54,0,0,1-7.36-7.68V30.82a7.55,7.55,0,0,1,7.36-7.68h.45a7.37,7.37,0,0,1,6.49,4.06"/><path class="b87bfcaa-d879-46f4-be40-97605edb197d" d="M29.8,49.34h3.78a9.44,9.44,0,0,0,8.27-4.68H31.35s-.78,0-1.11,0h0a3.41,3.41,0,0,1-3.15-3.6V30.82"/><polyline class="b87bfcaa-d879-46f4-be40-97605edb197d" points="33.38 41.27 48.27 41.27 54.45 27.29"/></svg>