<svg id="a4246f84-4cac-446c-9a66-9496b62cbc79" data-name="art" xmlns="http://www.w3.org/2000/svg" viewBox="0 0 64 64"><defs><style>.a561dcd2-0727-4407-82f6-d2567464cf94{fill:none;stroke:#555;stroke-miterlimit:10;}</style></defs><circle class="a561dcd2-0727-4407-82f6-d2567464cf94" cx="35.8" cy="37.5" r="7.82"/><line class="a561dcd2-0727-4407-82f6-d2567464cf94" x1="44.6" y1="46.3" x2="41.67" y2="43.36"/><rect class="a561dcd2-0727-4407-82f6-d2567464cf94" x="45.17" y="45.49" width="2.76" height="5.53" transform="translate(-20.48 47.05) rotate(-45)"/><path class="a561dcd2-0727-4407-82f6-d2567464cf94" d="M22.81,24.22C21,26,18.64,26.48,17.56,25.35s-.49-3.45,1.33-5.2,5.64-4,6.72-2.84-1,5.15-2.8,6.91"/><path class="a561dcd2-0727-4407-82f6-d2567464cf94" d="M28.64,34.76C27,32.82,25,28.76,26,27.6s4.85,1,6.48,3"/><path class="a561dcd2-0727-4407-82f6-d2567464cf94" d="M20,40.51c-.84,2.16-2.4,2.56-3.59,1.86s-1.68-2-.83-4.16,3.12-5.42,4.34-4.78.93,4.91.08,7.08"/><path class="a561dcd2-0727-4407-82f6-d2567464cf94" d="M43.49,22.66c-1-2.11-.18-3.5,1.14-3.88s2.61.18,3.59,2.29,1.74,6,.44,6.43-4.19-2.73-5.17-4.84"/><circle class="a561dcd2-0727-4407-82f6-d2567464cf94" cx="34.51" cy="20.84" r="2.62"/></svg>