<svg id="b9bf7192-f17c-4d08-a57f-c76666f38e45" data-name="art" xmlns="http://www.w3.org/2000/svg" viewBox="0 0 64 64"><defs><style>.be8fc2ad-8504-4164-8886-ea5d5b961344,.fb546593-e423-4ca6-806f-40900985f3ba,.fcf8c5f7-70a3-4859-94bd-fe572ee21c29{fill:none;stroke:#555;}.be8fc2ad-8504-4164-8886-ea5d5b961344,.fcf8c5f7-70a3-4859-94bd-fe572ee21c29{stroke-linecap:round;stroke-linejoin:round;}.fcf8c5f7-70a3-4859-94bd-fe572ee21c29{fill-rule:evenodd;}.fb546593-e423-4ca6-806f-40900985f3ba{stroke-miterlimit:10;}</style></defs><polyline class="be8fc2ad-8504-4164-8886-ea5d5b961344" points="42.5 38.95 42.5 49.16 16 49.16 16 16 42.5 16 42.5 30.14"/><path class="fcf8c5f7-70a3-4859-94bd-fe572ee21c29" d="M42.51,30.82l8.08-8.08,0,0a1.2,1.2,0,0,1,1.63,0l0,0,2.34,2.35A1.14,1.14,0,0,1,55,26a1.19,1.19,0,0,1-.34.84l-1,1L43.36,38.07l0,0-.05,0,0,0-.11.07h0l0,0-.07,0-.12,0a.5.5,0,0,1-.13,0l-.1,0h-.3l-.13,0-.09,0-.08,0h0l-.07,0-.08,0-.11-.08a.41.41,0,0,1-.1-.09h0l-4-4,0,0-2.81-2.8a1.2,1.2,0,0,1-.35-.84,1.22,1.22,0,0,1,.35-.84l2.37-2.37a1.22,1.22,0,0,1,.84-.35,1.18,1.18,0,0,1,.84.35l3.62,3.62Z"/><path class="fb546593-e423-4ca6-806f-40900985f3ba" d="M34.94,38.18c1.38,1.44,1.79,3.31.9,4.17s-2.74.38-4.13-1.06S28.56,36.82,29.46,36s4.09.78,5.48,2.22"/><path class="fb546593-e423-4ca6-806f-40900985f3ba" d="M21.66,43.86c-1.76-.56-2.15-1.77-1.66-2.74s1.49-1.44,3.25-.88,4.45,2.18,4,3.18-3.84,1-5.6.44"/><circle class="fb546593-e423-4ca6-806f-40900985f3ba" cx="23.17" cy="31.8" r="2.08"/><line class="be8fc2ad-8504-4164-8886-ea5d5b961344" x1="20.64" y1="22.68" x2="29.22" y2="22.68"/></svg>