<svg id="a932787d-8dda-42fb-94f9-66257717abea" data-name="art" xmlns="http://www.w3.org/2000/svg" viewBox="0 0 64 64"><defs><style>.abda62f0-8c5b-4ca9-8b43-bf6fdd4e4c0f,.b4eab926-b0a1-4f63-b2d2-55fc25068252{fill:none;stroke:#555;}.abda62f0-8c5b-4ca9-8b43-bf6fdd4e4c0f{stroke-miterlimit:10;}.b4eab926-b0a1-4f63-b2d2-55fc25068252{stroke-linecap:round;stroke-linejoin:round;}</style></defs><circle class="abda62f0-8c5b-4ca9-8b43-bf6fdd4e4c0f" cx="27.39" cy="24.49" r="5.92"/><path class="abda62f0-8c5b-4ca9-8b43-bf6fdd4e4c0f" d="M36.82,39.91a9.58,9.58,0,0,0-19.16,0V48H36.82Z"/><line class="b4eab926-b0a1-4f63-b2d2-55fc25068252" x1="14.61" y1="48" x2="49.97" y2="48"/><line class="b4eab926-b0a1-4f63-b2d2-55fc25068252" x1="47.05" y1="32.01" x2="47.05" y2="47.89"/><path class="abda62f0-8c5b-4ca9-8b43-bf6fdd4e4c0f" d="M51.47,41.62c-1.37,1.33-3.15,1.71-4,.86s-.37-2.61,1-3.93,4.26-3,5.08-2.15-.74,3.9-2.12,5.22"/><path class="abda62f0-8c5b-4ca9-8b43-bf6fdd4e4c0f" d="M45.36,35.18c1.33,1.38,1.71,3.15.86,4s-2.61.37-3.93-1-3-4.27-2.15-5.08,3.9.74,5.22,2.11"/></svg>