<?xml version="1.0" encoding="utf-8"?>
<!-- Generator: Adobe Illustrator 26.0.2, SVG Export Plug-In . SVG Version: 6.00 Build 0)  -->
<svg version="1.1" id="f42291c4-8c0d-48d9-9350-7a5cc1228249"
	 xmlns="http://www.w3.org/2000/svg" xmlns:xlink="http://www.w3.org/1999/xlink" x="0px" y="0px" viewBox="0 0 64 64"
	 style="enable-background:new 0 0 64 64;" xml:space="preserve">
<style type="text/css">
	.st0{fill:none;stroke:#FFFFFF;stroke-miterlimit:10;}
</style>
<g>
	<line class="st0" x1="21.8" y1="26.5" x2="32.7" y2="26.5"/>
	<line class="st0" x1="21.8" y1="32.3" x2="42.2" y2="32.3"/>
	<line class="st0" x1="21.8" y1="38.1" x2="42.2" y2="38.1"/>
	<line class="st0" x1="22.5" y1="44.6" x2="25.5" y2="47.5"/>
	<line class="st0" x1="41.5" y1="44.6" x2="38.5" y2="47.5"/>
	<path class="st0" d="M49.4,17.8H14.6c-2,0-3.6,1.7-3.6,3.6v22.5c0,2,1.7,3.6,3.6,3.6h10.9l6.5,7.3l6.5-7.3h10.9
		c2,0,3.6-1.7,3.6-3.6V21.4C53,19.4,51.4,17.8,49.4,17.8z"/>
	<path class="st0" d="M48,17.8v-2.3c0-1.5-1.3-2.8-2.8-2.8H18.8c-1.5,0-2.8,1.3-2.8,2.8v2.3H48z"/>
</g>
</svg>
