<?xml version="1.0" encoding="utf-8"?>
<!-- Generator: Adobe Illustrator 25.4.1, SVG Export Plug-In . SVG Version: 6.00 Build 0)  -->
<svg version="1.1" id="a7b125ff-8dda-4976-9420-05ab8abbb13e"
	 xmlns="http://www.w3.org/2000/svg" xmlns:xlink="http://www.w3.org/1999/xlink" x="0px" y="0px" viewBox="0 0 64 64"
	 style="enable-background:new 0 0 64 64;" xml:space="preserve">
<style type="text/css">
	.st0{fill:none;stroke:#555555;stroke-linecap:round;stroke-linejoin:round;}
</style>
<path class="st0" d="M41.3,41.3c1.3-1.4,3-1.8,3.9-1s0.5,2.6-0.8,3.9s-4.1,3.1-4.9,2.3S40,42.7,41.3,41.3"/>
<path class="st0" d="M33.3,41.9c1.2,1.5,1.6,3.3,0.8,4.2s-2.4,0.4-3.7-1s-2.8-4.5-2-5.4S32,40.5,33.3,41.9"/>
<circle class="st0" cx="36.5" cy="38" r="2"/>
<ellipse class="st0" cx="43.8" cy="18.9" rx="4" ry="3.9"/>
<path class="st0" d="M43.8,49.2h0.5c4.1,0,7.5-3.3,7.6-7.4V30.2c-0.1-4.1-3.5-7.4-7.6-7.4h-0.5c-4.1,0-7.5,3.3-7.6,7.4v3.2"/>
<ellipse class="st0" cx="32.2" cy="18.9" rx="4" ry="3.9"/>
<path class="st0" d="M32.2,49.2h-0.5c-4.1,0-7.5-3.3-7.6-7.4V30.2c0.1-4.1,3.5-7.4,7.6-7.4h0.5c2,0,3.9,0.8,5.4,2.1"/>
<ellipse class="st0" cx="20.4" cy="18.9" rx="4" ry="3.9"/>
<path class="st0" d="M20.4,49.2h-0.5c-4.1,0-7.5-3.3-7.6-7.4V30.2c0.1-4.1,3.5-7.4,7.6-7.4h0.5c2,0,3.9,0.8,5.4,2.1"/>
</svg>
