<?xml version="1.0" encoding="utf-8"?>
<!-- Generator: Adobe Illustrator 26.0.3, SVG Export Plug-In . SVG Version: 6.00 Build 0)  -->
<svg version="1.1" id="af4180df-12a2-43fc-a0b2-ff7852b3102a"
	 xmlns="http://www.w3.org/2000/svg" xmlns:xlink="http://www.w3.org/1999/xlink" x="0px" y="0px" viewBox="0 0 64 64"
	 style="enable-background:new 0 0 64 64;" xml:space="preserve">
<style type="text/css">
	.st0{fill:none;stroke:#FFFFFF;stroke-linecap:round;stroke-linejoin:round;stroke-miterlimit:10;}
</style>
<g>
	<path class="st0" d="M49,42.7L49,42.7c-4.4,6.7-11.5,6.7-15.8,0.1l0,0l0.1-0.1C37.6,36.1,44.7,36.1,49,42.7L49,42.7z"/>
	<circle class="st0" cx="41" cy="41.4" r="3.6"/>
	<rect x="18.6" y="15.3" class="st0" width="4.2" height="4.9"/>
	<rect x="37.5" y="15.3" class="st0" width="4.2" height="4.9"/>
	<polygon class="st0" points="41.7,17.7 41.7,20.2 37.5,20.2 37.5,17.7 22.9,17.7 22.9,20.2 18.6,20.2 18.6,17.7 15,17.7 15,23.8 
		45.4,23.8 45.4,17.7 	"/>
	<rect x="19.2" y="28.1" class="st0" width="5.5" height="5.5"/>
	<rect x="19.2" y="33.5" class="st0" width="5.5" height="5.5"/>
	<rect x="19.2" y="39" class="st0" width="5.5" height="5.5"/>
	<rect x="24.7" y="28.1" class="st0" width="5.5" height="5.5"/>
	<rect x="24.7" y="33.5" class="st0" width="5.5" height="5.5"/>
	<rect x="24.7" y="39" class="st0" width="5.5" height="5.5"/>
	<rect x="30.2" y="28.1" class="st0" width="5.5" height="5.5"/>
	<rect x="35.6" y="28.1" class="st0" width="5.5" height="5.5"/>
	<polyline class="st0" points="45.4,34.7 45.4,17.7 41.7,17.7 41.7,20.2 37.5,20.2 37.5,17.7 22.9,17.7 22.9,20.2 18.6,20.2 
		18.6,17.7 15,17.7 15,48.7 30.2,48.7 	"/>
</g>
</svg>
