<?xml version="1.0" encoding="utf-8"?>
<!-- Generator: Adobe Illustrator 26.0.2, SVG Export Plug-In . SVG Version: 6.00 Build 0)  -->
<svg version="1.1" id="af4180df-12a2-43fc-a0b2-ff7852b3102a"
	 xmlns="http://www.w3.org/2000/svg" xmlns:xlink="http://www.w3.org/1999/xlink" x="0px" y="0px" viewBox="0 0 64 64"
	 style="enable-background:new 0 0 64 64;" xml:space="preserve">
<style type="text/css">
	.st0{fill:none;stroke:#FFFFFF;stroke-linecap:round;stroke-linejoin:round;stroke-miterlimit:10;}
</style>
<g>
	<rect x="21.7" y="15.5" class="st0" width="4" height="4.5"/>
	<rect x="39.3" y="15.5" class="st0" width="4" height="4.5"/>
	<polygon class="st0" points="43.3,17.8 43.3,20.1 39.3,20.1 39.3,17.8 25.7,17.8 25.7,20.1 21.7,20.1 21.7,17.8 17.2,17.8 17.2,24 
		47.8,24 47.8,17.8 	"/>
	<polygon class="st0" points="43.3,17.8 43.3,20.1 39.3,20.1 39.3,17.8 25.7,17.8 25.7,20.1 21.7,20.1 21.7,17.8 17.2,17.8 
		17.2,48.5 47.8,48.5 47.8,17.8 	"/>
	<rect x="22.3" y="28.6" class="st0" width="5.1" height="5.1"/>
	<rect x="22.3" y="33.7" class="st0" width="5.1" height="5.1"/>
	<rect x="22.3" y="38.8" class="st0" width="5.1" height="5.1"/>
	<rect x="27.4" y="28.6" class="st0" width="5.1" height="5.1"/>
	<rect x="27.4" y="33.7" class="st0" width="5.1" height="5.1"/>
	<rect x="27.4" y="38.8" class="st0" width="5.1" height="5.1"/>
	<rect x="32.5" y="28.6" class="st0" width="5.1" height="5.1"/>
	<rect x="32.5" y="33.7" class="st0" width="5.1" height="5.1"/>
	<rect x="32.5" y="38.8" class="st0" width="5.1" height="5.1"/>
	<rect x="37.6" y="28.6" class="st0" width="5.1" height="5.1"/>
	<rect x="37.6" y="33.7" class="st0" width="5.1" height="5.1"/>
	<rect x="37.6" y="38.8" class="st0" width="5.1" height="5.1"/>
</g>
</svg>
