<?xml version="1.0" encoding="utf-8"?>
<!-- Generator: Adobe Illustrator 24.2.1, SVG Export Plug-In . SVG Version: 6.00 Build 0)  -->
<svg version="1.1" id="Layer_1" xmlns="http://www.w3.org/2000/svg" xmlns:xlink="http://www.w3.org/1999/xlink" x="0px" y="0px"
	 viewBox="0 0 2500 597.8" style="enable-background:new 0 0 2500 597.8;" xml:space="preserve">
<style type="text/css">
	.st0{fill-rule:evenodd;clip-rule:evenodd;fill:#AC183C;fill-opacity:0;}
	.st1{fill-rule:evenodd;clip-rule:evenodd;fill:#AC183C;}
</style>
<g>
	<path class="st0" d="M0-960.5h2500v2500H0V-960.5z"/>
	<path class="st1" d="M794.8,454.8c0-22.4-1.2-24.8-11.8-28.3c-2.4,0-7.1-1.2-9.4-1.2c-1.2,0-2.4,0-2.4-1.2c0-1.2,1.2-2.4,4.7-2.4
		c11.8,0,29.5,1.2,30.7,1.2s18.9-1.2,27.2-1.2c3.5,0,4.7,1.2,4.7,2.4c0,1.2-1.2,1.2-2.4,1.2c-2.4,0-3.5,1.2-7.1,1.2
		c-7.1,1.2-9.5,5.9-9.5,16.5c-1.2,8.3-1.2,16.5-1.2,28.4v31.9c0,11.8,0,13-3.5,15.4c-17.7,9.5-42.5,11.8-57.9,11.8
		c-21.3,0-60.2-2.4-90.9-29.5C648.4,485.5,633,456,633,420.6c0-43.7,21.3-75.6,46-90.9c24.8-16.5,52-17.7,73.2-17.7
		c17.7,0,36.6,3.5,42.5,4.7c5.9,1.2,15.4,2.4,22.4,2.4c2.4,0,3.5,1.2,3.5,2.4c0,3.5-2.4,11.8-2.4,40.2c0,3.5-1.2,5.9-2.4,5.9
		s-2.4-2.4-2.4-4.7c0-3.5-1.2-11.8-5.9-18.9c-7.1-10.6-29.5-22.4-64.9-22.4c-16.5,0-37.8,2.4-59,18.9c-15.4,13-27.2,37.8-27.2,70.9
		c0,39,20.1,68.5,29.5,77.9c21.3,21.3,47.2,29.5,72,29.5c10.6,0,24.8-1.2,31.9-5.9c3.5-2.4,4.7-4.7,4.7-9.5L794.8,454.8L794.8,454.8
		L794.8,454.8z M950.7,447.7c1.2,0,1.2-1.2,1.2-2.4l-22.4-64.9c-1.2-3.5-2.4-3.5-3.5,0l-21.3,64.9c0,1.2,0,2.4,1.2,2.4H950.7z
		 M925.9,350.9c2.4-7.1,3.5-8.3,4.7-8.3c2.4-1.2,2.4,0,5.9,8.3c3.5,8.3,40.1,107.5,55.5,144.1c8.3,21.3,14.2,24.8,20.1,27.2
		c3.5,1.2,7.1,1.2,9.4,1.2c1.2,0,2.4,0,2.4,1.2c0,1.2-2.4,2.4-4.7,2.4c-3.5,0-21.3,0-37.8-1.2c-4.7,0-7.1,0-7.1-1.2
		c0-1.2,1.2-1.2,2.4-1.2c1.2-1.2,2.4-3.5,1.2-7.1l-22.4-59c0-1.2-1.2-1.2-2.4-1.2h-50.8c-1.2,0-1.2,1.2-2.4,2.4l-14.2,42.5
		c-1.2,5.9-2.4,10.6-2.4,15.4c0,4.7,4.7,7.1,8.3,7.1h2.4c2.4,0,2.4,0,2.4,1.2c0,1.2-1.2,2.4-3.5,2.4c-5.9,0-15.4-1.2-17.7-1.2
		c-3.5,0-16.5,1.2-27.2,1.2c-3.5,0-4.7-1.2-4.7-2.4c0-1.2,1.2-1.2,2.4-1.2h7.1c10.6-2.4,15.4-10.6,20.1-22.4L925.9,350.9
		L925.9,350.9z M1086.5,457.2c0,22.4,0,41.3,1.2,51.9c1.2,7.1,2.4,11.8,9.5,13c3.5,1.2,8.3,1.2,10.6,1.2c1.2,0,2.4,1.2,2.4,1.2
		c0,1.2-1.2,2.4-4.7,2.4c-11.8,0-27.2-1.2-28.3-1.2c-1.2,0-16.5,1.2-23.6,1.2c-2.4,0-3.5-1.2-3.5-2.4c0,0,0-1.2,2.4-1.2
		c1.2,0,4.7,0,7.1-1.2c4.7-1.2,5.9-5.9,5.9-13c1.2-10.6,1.2-29.5,1.2-51.9V355.6h-34.2c-15.4,1.2-20.1,2.4-24.8,8.3
		c-2.4,3.5-2.4,5.9-3.5,7.1c-1.2,2.4-1.2,2.4-2.4,2.4s-1.2,0-1.2-2.4c0-2.4,4.7-22.4,4.7-24.8c1.2-1.2,2.4-3.5,2.4-3.5
		c2.4-1.2,4.7,2.4,10.6,2.4c7.1,1.2,16.5,1.2,18.9,1.2h88.6c8.3,0,13-1.2,16.5-1.2c3.5-1.2,5.9-1.2,7.1-1.2s1.2,1.2,1.2,2.4
		c0,7.1-1.2,23.6-1.2,27.2c0,2.4,0,2.4-1.2,2.4s-1.2,0-2.4-3.5v-2.4c-1.2-7.1-5.9-13-28.3-14.2h-30.7L1086.5,457.2L1086.5,457.2
		L1086.5,457.2z M1195.1,414.6v-52c-1.2-8.3-2.4-11.8-10.6-13c-1.2-1.2-5.9-1.2-8.3-1.2c0,0-1.2,0-1.2-1.2c0-1.2,1.2-2.4,3.5-2.4
		c10.6,0,26,1.2,27.2,1.2h54.3c3.5,0,8.3-1.2,9.5-1.2c1.2,0,2.4-1.2,3.5-1.2c1.2,0,1.2,1.2,1.2,2.4c0,1.2-1.2,3.5-2.4,10.6
		c0,2.4,0,13-1.2,15.4c0,1.2,0,3.5-1.2,3.5c-1.2,0-2.4-1.2-2.4-3.5c0-1.2,0-5.9-1.2-8.3c-1.2-4.7-3.5-7.1-16.5-8.3
		c-4.7-1.2-29.5-1.2-33.1-1.2c0,0-1.2,1.2-1.2,2.4v66.1c0,2.4,0,2.4,1.2,2.4h37.8c5.9-1.2,9.5-1.2,11.8-3.5c1.2-2.4,2.4-3.5,3.5-3.5
		c0,0,1.2,1.2,1.2,2.4c0,1.2-1.2,5.9-2.4,13c0,4.7-1.2,14.2-1.2,15.4c0,2.4,0,4.7-1.2,4.7c-1.2,0-2.4,0-2.4-2.4v-7.1
		c-1.2-3.5-3.5-8.3-13-8.3c-5.9-1.2-29.5-1.2-33.1-1.2c-1.2,0-2.4,0-2.4,1.2v62.6c1.2,16.5,4.7,18.9,27.2,18.9
		c7.1,0,16.5,0,23.6-2.4c5.9-2.4,8.3-7.1,10.6-17.7c0-2.4,0-3.5,1.2-3.5c2.4,0,2.4,2.4,2.4,3.5c0,2.4-2.4,18.9-3.5,23.6
		c-1.2,5.9-3.5,5.9-13,5.9c-35.4,0-52-1.2-57.9-1.2h-9.4c-4.7,1.2-10.6,1.2-14.2,1.2c-2.4,0-3.5-1.2-3.5-2.4c0,0,0-1.2,2.4-1.2
		c1.2,0,4.7,0,7.1-1.2c4.7-1.2,5.9-5.9,5.9-13c1.2-10.6,1.2-29.5,1.2-51.9L1195.1,414.6L1195.1,414.6L1195.1,414.6z M1322.6,523.3
		c-2.4-1.2-3.5-2.4-3.5-9.5c0-11.8,1.2-21.3,1.2-24.8c1.2-2.4,1.2-3.5,2.4-3.5c1.2,0,1.2,0,1.2,2.4c0,2.4,0,5.9,1.2,8.3
		c3.5,17.7,18.9,24.8,35.4,24.8c22.4,0,33.1-16.5,33.1-31.9c0-16.5-7.1-26-27.2-42.5l-10.6-9.5c-24.8-21.3-30.7-35.4-30.7-52
		c0-26,18.9-42.5,49.6-42.5c8.3-1.2,15.4,0,21.3,2.4c4.7,0,7.1,1.2,8.3,1.2c2.4,0,2.4,0,2.4,1.2v24.8c0,4.7-1.2,5.9-2.4,5.9
		c-1.2,0-1.2-1.2-2.4-2.4c0-3.5-1.2-9.5-2.4-13c-1.2-2.4-8.3-11.8-29.5-11.8c-16.5,0-29.5,9.5-29.5,27.2c0,14.2,7.1,22.4,29.5,40.1
		l5.9,5.9c28.3,22.4,34.3,36.6,34.3,55.5c0,10.6-3.5,28.4-20.1,40.2c-9.5,7.1-22.4,10.6-35.4,10.6
		C1343.5,530.3,1332.6,527.8,1322.6,523.3L1322.6,523.3z M1544.6,412.3c-1.2,3.5-2.4,9.5-4.7,15.4c-5.9,22.4-11.8,43.7-17.7,66.1
		c-5.9,17.7-11.8,28.3-15.4,31.9c-2.4,2.4-10.6,9.5-22.4,9.5c-8.3,0-11.8-5.9-11.8-9.5c0-4.7,2.4-5.9,3.5-7.1
		c2.4-2.4,3.5-1.2,5.9,1.2c2.4,4.7,7.1,8.3,10.6,8.3c3.5,0,8.3-3.5,13-16.5c9.5-33.1,15.4-67.3,24.8-99.2h-15.4
		c-2.4-1.2-1.2-4.7,1.2-7.1h16.5c4.7-17.7,9.5-33.1,21.3-46.1c9.5-11.8,21.3-16.5,33.1-16.5c8.3,0,15.4,4.7,15.4,13
		c0,5.9-4.7,11.8-8.3,11.8c-1.2,0-2.4-2.4-2.4-3.5c-1.2-11.8-7.1-15.4-11.8-15.4c-5.9,0-10.6,4.7-15.4,10.6
		c-9.5,13-13,29.5-17.7,46.1h23.6c1.2,2.4,1.2,4.7-2.4,7.1L1544.6,412.3L1544.6,412.3L1544.6,412.3z M1622.5,418.2
		c-11.8,15.4-18.9,39-20.1,48.4c0,7.1,2.4,13,8.3,13c4.7,0,9.5-2.4,15.4-10.6c8.3-10.6,17.7-36.6,17.7-47.2c1.2-5.9,0-13-7.1-13
		C1633.2,408.7,1628.4,409.9,1622.5,418.2L1622.5,418.2z M1658,427.6c-1.2,10.6-7.1,29.5-21.3,43.7c-11.8,13-22.4,14.2-27.2,14.2
		c-13,0-20.1-9.5-20.1-26c1.2-11.8,8.3-31.9,21.3-43.7c10.6-10.6,18.9-13,27.2-13C1652,402.8,1658,413.5,1658,427.6L1658,427.6z
		 M1705.2,465.4c-2.4,4.7-1.2,7.1,1.2,7.1c2.4,0,10.6-5.9,20.1-16.5c17.7-17.7,28.3-40.2,34.2-52c4.7-1.2,9.5,1.2,9.5,3.5
		c-1.2,4.7-14.2,37.8-22.4,60.2c-1.2,3.5-1.2,4.7,1.2,4.7c3.5,0,14.2-8.3,18.9-14.2c1.2-1.2,3.5,0,3.5,2.4
		c-4.7,9.5-23.6,24.8-34.3,24.8c-2.4,0-5.9-3.5-4.7-7.1l13-35.4v-1.2c-14.2,18.9-37.8,43.7-48.4,43.7c-8.3,0-9.5-8.3-5.9-16.5
		l17.7-48.4c1.2-3.5,1.2-4.7,0-4.7c-3.5,0-13,8.3-17.7,13c-2.4,0-3.5-1.2-3.5-2.4c4.7-8.3,24.8-23.6,33.1-23.6
		c2.4,0,7.1,2.4,5.9,5.9L1705.2,465.4L1705.2,465.4z M1825.6,445.3c14.2-21.3,33.1-42.5,48.4-42.5c7.1,0,10.6,3.5,10.6,10.6
		c0,2.4-1.2,9.5-3.5,13c-3.5,10.6-16.5,42.5-17.7,43.7c-1.2,2.4-1.2,3.5,0,3.5c3.5,0,13-5.9,18.9-13c2.4,0,2.4,1.2,2.4,2.4
		c-7.1,13-22.4,22.4-33.1,22.4c-1.2,0-4.7-2.4-4.7-4.7c0-2.3,1.2-3.5,4.7-13c4.7-9.5,11.8-29.5,15.4-39c2.4-3.5,4.7-10.6,4.7-14.2
		c0-2.4,0-4.7-3.5-4.7c-4.7,0-15.4,9.5-26,23.6c-10.6,13-18.9,28.4-29.5,49.6c-1.2,1.2-2.4,2.4-3.5,2.4c-2.4,0-8.3-1.2-5.9-4.7
		l22.4-62.6c1.2-2.4,1.2-4.7-1.2-4.7c-3.5,0-10.6,4.7-16.5,10.6c-2.4,0-3.5-1.2-3.5-3.5c8.3-9.5,20.1-17.7,29.5-17.7
		c4.7,0,7.1,3.5,4.7,8.3L1825.6,445.3L1825.6,445.3z M1959,417c-8.3,7.1-22.4,26-28.3,37.8c-5.9,13-5.9,16.5-5.9,18.9
		c0,2.4,2.4,4.7,3.5,4.7c3.5,0,13-3.5,26-17.7c15.4-15.4,21.3-27.2,23.6-37.8c2.4-8.3,0-14.2-4.7-14.2
		C1968.5,408.7,1963.8,412.3,1959,417L1959,417z M1996.8,368.6c4.7-11.8,4.7-15.4,2.4-16.5l-4.7-3.5c0,0,0-1.2,1.2-2.4
		c3.5-1.2,14.2-3.5,22.4-3.5l1.2,1.2c-3.5,10.6-7.1,17.7-13,34.3c-18.9,54.3-28.4,85-29.5,90.9c-1.2,2.4-1.2,4.7,1.2,4.7
		c3.5,0,15.4-9.5,21.3-17.7c1.2,0,2.4,1.2,2.4,2.4c-4.7,10.6-22.4,27.2-31.9,27.2c-4.7,0-7.1-3.5-7.1-5.9c0-2.4,1.2-5.9,2.4-11.8
		l7.1-18.9v-1.2c-14.2,18.9-28.4,37.8-47.2,37.8c-7.1,0-11.8-5.9-11.8-14.2c0-14.2,10.6-37.8,26-50.8c13-13,24.8-17.7,34.3-17.7
		c3.5,0,8.3,1.2,10.6,5.9L1996.8,368.6z M2063,420.5c-11.8,10.6-24.8,36.6-24.8,50.8c0,2.4,2.4,3.5,3.5,3.5c2.4,0,8.3-2.4,18.9-13
		c14.2-14.2,22.4-30.7,26-42.5c-1.2-3.5-4.7-7.1-9.4-7.1C2072.4,412.3,2068.9,414.6,2063,420.5L2063,420.5z M2097.2,398.1
		c2.4-1.2,8.3,0,9.5,2.4c-3.5,8.3-20.1,50.8-26,69.7c-1.2,2.4-1.2,3.5,1.2,3.5c3.5,0,8.3-2.4,20.1-13c1.2,0,2.4,1.2,2.4,2.4
		c-8.3,11.8-22.4,22.4-33.1,22.4c-3.5,0-4.7-3.5-4.7-5.9c0-1.2,0-2.4,1.2-7.1l7.1-17.7h-1.2c-13,16.5-33.1,30.7-42.5,30.7
		c-4.7,0-8.3-5.9-8.3-10.6c0-4.7,3.5-21.3,16.5-39c9.5-13,17.7-20.1,26-24.8c7.1-4.7,13-5.9,17.7-5.9c2.4,0,3.5,1.2,4.7,1.2
		c0,0,2.4,2.4,3.5,4.7L2097.2,398.1L2097.2,398.1z M2168.1,414.6l-17.7,51.9c0,3.5,0,4.7,2.4,4.7c2.4,0,15.4-10.6,21.3-17.7
		c2.4,0,3.5,1.2,3.5,3.5c-11.8,16.5-29.5,28.3-37.8,28.3c-2.4,0-4.7-2.4-4.7-5.9c0-2.4,0-4.7,2.4-10.6l17.7-54.3h-14.2
		c-1.2-2.4,0-4.7,1.2-5.9l16.5-2.4l10.6-18.9c1.2-1.2,5.9-1.2,7.1,1.2l-5.9,18.9h21.3c1.2,2.4,0,5.9-2.4,7.1L2168.1,414.6
		L2168.1,414.6z M2257.8,362.7c0,5.9-3.5,13-10.6,13c-4.7,0-5.9-4.7-5.9-8.3s2.4-11.8,9.5-11.8
		C2255.4,355.6,2257.8,359.1,2257.8,362.7L2257.8,362.7z M2233,419.4c1.2-2.4,1.2-4.7,0-4.7c-1.2,0-7.1,2.4-16.5,10.6
		c-1.2,0-2.4-1.2-2.4-3.5c10.6-11.8,26-18.9,31.9-18.9c1.2,0,2.4,1.2,3.5,1.2c1.2,2.4,1.2,3.5-1.2,9.5l-23.6,55.5
		c0,2.4-1.2,4.7,1.2,4.7c3.5,0,13-7.1,20.1-15.4c1.2,1.2,2.4,2.4,2.4,3.5c-2.4,5.9-22.4,23.6-35.4,23.6c-1.2,0-2.4-1.2-3.5-2.4
		c-1.2-1.2-1.2-2.4-1.2-4.7L2233,419.4z M2315.6,418.2c-10.6,15.4-18.9,39-18.9,48.4c0,7.1,2.4,13,8.3,13c3.5,0,8.3-2.4,15.4-10.6
		c8.3-10.6,16.5-36.6,17.7-47.2c0-5.9-1.2-13-8.3-13C2326.3,408.7,2321.5,409.9,2315.6,418.2L2315.6,418.2z M2351.1,427.6
		c0,10.6-5.9,29.5-20.1,43.7c-11.8,13-22.4,14.2-28.4,14.2c-11.8,0-20.1-9.5-18.9-26c1.2-11.8,8.3-31.9,21.3-43.7
		c9.5-10.6,18.9-13,26-13C2345.1,402.8,2352.2,413.5,2351.1,427.6L2351.1,427.6z M2404.2,445.3c14.2-21.3,33.1-42.5,47.2-42.5
		c8.3,0,11.8,3.5,11.8,10.6c0,2.4-2.4,9.5-3.5,13c-3.5,10.6-17.7,42.5-17.7,43.7c-1.2,2.4-1.2,3.5,0,3.5c3.5,0,13-5.9,17.7-13
		c3.5,0,3.5,1.2,3.5,2.4c-7.1,13-22.4,22.4-33.1,22.4c-2.4,0-4.7-2.4-4.7-4.7c0-2.3,0-3.5,4.7-13c3.5-9.5,10.6-29.5,15.4-39
		c1.2-3.5,4.7-10.6,4.7-14.2c0-2.4-1.2-4.7-3.5-4.7c-4.7,0-16.5,9.5-27.2,23.6c-9.5,13-17.7,28.4-29.5,49.6
		c-1.2,1.2-1.2,2.4-3.5,2.4c-2.3,0-7.1-1.2-5.9-4.7l23.6-62.6c0-2.4,0-4.7-1.2-4.7c-4.7,0-10.6,4.7-17.7,10.6
		c-1.2,0-2.4-1.2-2.4-3.5c7.1-9.5,18.9-17.7,29.5-17.7c3.5,0,5.9,3.5,4.7,8.3L2404.2,445.3L2404.2,445.3z M82.8,165.5v61.4
		c1.2,13,1.2,17.7,9.5,21.3c7.1,3.5,18.9,4.7,23.6,4.7c15.4,0,39-8.3,39-40.2c0-16.5-5.9-41.3-26-55.5c-9.5-7.1-16.5-8.3-23.6-8.3
		c-3.5-1.2-17.7-1.2-21.3-1.2c-1.2,0-1.2,1.2-1.2,2.4L82.8,165.5L82.8,165.5z M82.8,136c0,2.4,0,3.5,1.2,3.5c2.4,0,7.1,1.2,16.5,1.2
		c15.3,0,20.1-1.2,26-7.1c5.9-7.1,9.4-16.5,9.4-28.3c0-23.6-10.6-48.4-36.6-48.4c-3.5,0-9.4,0-14.2,1.2c-2.4,1.2-2.4,1.2-2.4,3.5
		L82.8,136L82.8,136L82.8,136z M60.4,130.1c0-43.7,0-50.8-1.2-60.2c0-9.5-2.4-14.2-11.8-16.5h-9.5c-1.2,0-1.2-1.2-1.2-2.4
		c0-1.2,1.2-2.4,3.5-2.4c13,0,30.7,1.2,31.9,1.2c5.9,0,16.5-1.2,29.5-1.2c44.9,0,55.5,28.3,55.5,42.5c0,22.4-13,36.6-26,50.8
		c20.1,5.9,47.2,26,47.2,59c0,29.5-22.4,60.2-69.7,60.2c-7.1,0-35.4-1.2-36.6-1.2H45c-3.5,0-4.7,0-4.7-1.2c0-1.2,1.2-2.4,2.4-2.4
		c2.4,0,5.9,0,8.3-1.2c5.9-1.2,7.1-7.1,8.3-15.4c1.2-11.8,1.2-33.1,1.2-60.2C60.4,179.6,60.4,130.1,60.4,130.1z M259.9,191.5
		c0,22.4,0,41.3,1.2,52c0,5.9,1.2,11.8,8.3,13c3.5,0,9.4,1.2,10.6,1.2s2.4,0,2.4,1.2c0,1.2-1.2,1.2-3.5,1.2h-53.1
		c-2.4,0-3.5,0-3.5-1.2c0-1.2,1.2-1.2,2.4-1.2c2.4,0,4.7-1.2,7.1-1.2c4.7-1.2,5.9-7.1,7.1-13c1.2-10.6,1.2-29.5,1.2-52V149
		c0-37.8,0-43.7-1.2-52c0-8.3-2.4-11.8-7.1-13c-3.5-1.2-5.9-1.2-8.3-1.2c-1.2,0-1.2-1.2-1.2-1.2c0-2.4,1.2-2.4,3.5-2.4
		c7.1,0,22.4,1.2,23.6,1.2s16.5-1.2,23.6-1.2c2.4,0,3.5,0,3.5,2.4c0,0-1.2,1.2-2.4,1.2h-5.9c-5.9,1.2-8.3,5.9-8.3,14.2L259.9,191.5
		L259.9,191.5z M361.5,191.5c0,35.4,1.2,50.8,5.9,54.3c3.5,4.7,9.5,5.9,28.3,5.9c11.8,0,22.4,0,28.3-7.1c3.5-3.5,5.9-9.5,5.9-14.2
		c0-2.4,1.2-3.5,2.4-3.5s1.2,1.2,1.2,3.5s-1.2,17.7-3.5,24.8c-1.2,4.7-2.4,5.9-14.2,5.9c-34.2,0-49.6-1.2-63.8-1.2h-23.6
		c-2.4,0-3.5,0-3.5-1.2s1.2-1.2,2.4-1.2c1.2,0,4.7-1.2,7.1-1.2c4.7-1.2,5.9-7.1,5.9-13c2.4-10.6,2.4-29.5,2.4-52V149
		c0-37.8,0-43.7-1.2-52c0-8.3-2.4-11.8-9.4-14.2h-8.3c-1.2,0-2.4-1.2-2.4-1.2c0-2.4,1.2-2.4,3.5-2.4c10.6,0,26,1.2,27.2,1.2
		c1.2,0,18.9-1.2,26-1.2c2.4,0,3.5,0,3.5,2.4c0,0-1.2,1.2-2.4,1.2h-7.1c-7.1,1.2-9.5,5.9-9.5,14.2c-1.2,8.3-1.2,14.2-1.2,52
		L361.5,191.5L361.5,191.5z M494.9,191.5c0,35.4,1.2,50.8,4.7,54.3c3.5,4.7,9.4,5.9,28.3,5.9c13,0,23.6,0,28.3-7.1
		c3.5-3.5,5.9-9.5,7.1-14.2c0-2.4,0-3.5,1.2-3.5s2.4,1.2,2.4,3.5s-2.4,17.7-3.5,24.8c-2.4,4.7-2.4,5.9-15.4,5.9
		c-34.2,0-49.6-1.2-63.8-1.2h-22.4c-3.5,0-4.7,0-4.7-1.2s1.2-1.2,2.4-1.2c2.4,0,4.7-1.2,7.1-1.2c4.7-1.2,5.9-7.1,7.1-13
		c1.2-10.6,1.2-29.5,1.2-52V149c0-37.8,0-43.7-1.2-52c0-8.3-1.2-11.8-9.5-14.2h-8.3c-1.2,0-1.2-1.2-1.2-1.2c0-2.4,1.2-2.4,3.5-2.4
		c10.6,0,24.8,1.2,26,1.2c1.2,0,18.9-1.2,26-1.2c2.4,0,3.5,0,3.5,2.4l-1.2,1.2h-8.3c-7.1,1.2-8.3,5.9-9.4,14.2L494.9,191.5
		L494.9,191.5z M655.5,158.4v-4.7c0-4.7-2.4-7.1-5.9-7.1s-9.5,3.5-15.4,11.8c-7.1,8.3-9.5,15.4-11.8,24.8
		C633.8,175.4,644.8,167.2,655.5,158.4L655.5,158.4z M609.4,197.4c0-9.4,3.5-27.2,18.9-43.7c13-13,26-15.4,29.5-15.4
		c9.4,0,10.6,5.9,13,8.3c8.3-7.1,22.4-21.3,28.3-29.5c2.4-3.5,7.1-11.8,7.1-16.5c0-3.5-1.2-4.7-2.4-5.9c-2.4-2.4-2.4-2.4-2.4-4.7
		c0-5.9,3.5-8.3,8.3-8.3c4.7,0,8.3,2.4,8.3,10.6c0,10.6-5.9,23.6-24.8,41.3c-16.5,16.5-49.6,42.5-70.8,56.7v2.4
		c0,24.8,20.1,34.3,35.4,34.3c16.5,0,36.6-11.8,48.4-33.1c8.3-14.2,10.6-24.8,10.6-41.3c-2.4-1.2-5.9-3.5-10.6-3.5
		c-5.9,0-14.2,5.9-14.2,13c0,2.4,1.2,4.7,1.2,7.1c1.2,2.4,2.4,4.7,2.4,5.9c0,1.2-1.2,5.9-7.1,5.9c-3.5,0-8.3-3.5-8.3-8.3
		c0-5.9,3.5-14.2,13-23.6c8.3-5.9,17.7-8.3,20.1-8.3c10.6,0,16.5,7.1,27.2,16.5c4.7,3.5,4.7,4.7,8.3,4.7c2.4,0,3.5-2.4,3.5-5.9v-4.7
		c-1.2-2.4-1.2-2.4-1.2-3.5c0-2.4,2.4-4.7,5.9-4.7c5.9,0,8.3,5.9,8.3,10.6c0,4.7-2.4,8.3-3.5,10.6c-2.4,1.2-3.5,1.2-5.9,1.2
		c-3.5,1.2-10.6,3.5-15.4,4.7c-1.2,2.4-3.5,1.2-4.7,0c-1.2-2.4-7.1-9.5-13-15.4c0,3.5-1.2,14.2-1.2,17.7c0,5.9-4.7,26-20.1,43.7
		c-14.2,15.4-34.3,22.4-48.4,22.4C621.2,238.7,609.4,218.6,609.4,197.4L609.4,197.4z M1042.8,223.4c1.2,9.5,2.4,24.8,14.2,29.5
		c5.8,1.6,11.7,2.4,17.7,2.4c2.4,0,2.4,0,2.4,1.2s-2.4,2.4-5.9,2.4c-5.9,0-35.4-1.2-46-1.2c-5.9-1.2-7.1-2.4-7.1-3.5s0-1.2,1.2-1.2
		c2.4-1.2,2.4-5.9,1.2-10.6l-13-144.1h-1.2l-67.3,145.2c-5.9,11.8-5.9,15.4-8.3,15.4c-2.4,0-3.5-3.5-9.4-13
		c-7.1-14.2-30.7-62.6-31.9-64.9c-12.4-26.7-24.6-53.4-36.6-80.3h-1.2l-10.6,129.9v14.2c0,4.7,2.4,8.3,7.1,9.5
		c4.7,0,8.3,1.2,10.6,1.2c0,0,1.2,0,1.2,1.2c0,2.4-1.2,2.4-4.7,2.4c-9.5,0-23.6-1.2-26-1.2c-2.4,0-15.4,1.2-22.4,1.2
		c-2.4,0-4.7,0-4.7-2.4c0-1.2,1.2-1.2,2.4-1.2c2.4,0,4.7,0,8.3-1.2c9.5-1.2,10.6-13,11.8-23.6l18.9-181.8c1.2-3.5,2.4-4.7,3.5-4.7
		c1.2,0,2.4,1.2,4.7,3.5l83.8,175.9l81.5-175.9c1.2-2.4,1.2-3.5,3.5-3.5s2.4,2.4,3.5,7.1L1042.8,223.4z M1116,146.6V95.8
		c0-8.3-2.4-13-10.6-14.2c-1.2,0-5.9-1.2-7.1-1.2c-1.2,0-2.4,0-2.4-1.2c0-1.2,1.2-2.4,3.5-2.4c10.6,0,26,1.2,27.2,1.2h54.3
		c3.5,0,8.3-1.2,9.5-1.2c1.2,0,2.4-1.2,3.5-1.2s1.2,1.2,1.2,2.4c0,1.2-1.2,4.7-2.4,10.6c0,2.4,0,13-1.2,16.5c0,1.2,0,2.4-1.2,2.4
		s-2.4-1.2-2.4-3.5c0-1.2,0-5.9-1.2-8.3c-1.2-3.5-3.5-7.1-16.5-8.3c-4.7,0-29.5-1.2-33.1-1.2c0,0-1.2,1.2-1.2,2.4v66.1
		c0,2.4,0,3.5,1.2,3.5c3.5,0,33.1,0,37.8-1.2c5.9,0,9.4-1.2,11.8-3.5c1.2-1.2,2.4-2.4,3.5-2.4c0,0,1.2,0,1.2,1.2
		c0,1.2-1.2,5.9-2.4,14.2c0,4.7-1.2,13-1.2,15.4c0,1.2,0,3.5-1.2,3.5s-2.4,0-2.4-1.2v-8.3c-1.2-3.5-3.5-7.1-13-8.3
		c-5.9-1.2-29.5-1.2-33.1-1.2c-1.2,0-2.4,0-2.4,1.2v62.6c1.2,16.5,4.7,18.9,28.4,18.9c5.9,0,16.5,0,22.4-2.4
		c5.9-2.4,8.3-7.1,10.6-16.5c0-3.5,1.2-3.5,2.4-3.5s1.2,1.2,1.2,3.5c0,1.2-2.4,17.7-3.5,22.4c-1.2,7.1-3.5,7.1-13,7.1
		c-35.4,0-50.8-2.4-57.9-2.4c-1.2,0-4.7,1.2-9.4,1.2H1103c-2.4,0-3.5,0-3.5-2.4c0,0,0-1.2,2.4-1.2c1.2,0,4.7,0,7.1-1.2
		c4.7-1.2,5.9-5.9,5.9-13c1.2-9.4,1.2-28.3,1.2-52L1116,146.6L1116,146.6L1116,146.6z M1276.6,189.1c0,35.4,0,50.8,4.7,55.5
		c3.5,3.5,9.5,5.9,28.4,5.9c13,0,23.6-1.2,28.3-7.1c3.5-4.7,5.9-10.6,7.1-15.4c0-1.2,0-2.4,1.2-2.4c1.2,0,1.2,1.2,1.2,3.5
		c0,2.4-1.2,16.5-2.4,23.6c-2.4,5.9-3.5,7.1-15.4,7.1c-34.3,0-49.6-2.4-63.8-2.4c-1.2,0-4.7,1.2-9.5,1.2h-13c-2.4,0-4.7,0-4.7-2.4
		c0,0,1.2-1.2,2.4-1.2c2.4,0,4.7,0,7.1-1.2c4.7-1.2,5.9-5.9,7.1-13c1.2-9.4,1.2-28.3,1.2-52v-42.5c0-36.6,0-43.7-1.2-50.8
		c0-8.3-2.4-13-9.5-14.2c-2.4,0-5.9-1.2-8.3-1.2c-1.2,0-2.4,0-2.4-1.2c0-1.2,1.2-2.4,4.7-2.4c10.6,0,24.8,1.2,26,1.2
		c1.2,0,18.9-1.2,26-1.2c2.4,0,3.5,1.2,3.5,2.4c0,1.2-1.2,1.2-1.2,1.2c-2.4,0-5.9,1.2-8.3,1.2c-7.1,1.2-9.5,4.7-9.5,14.2
		L1276.6,189.1L1276.6,189.1L1276.6,189.1z M1414.7,189.1c0,23.6,0,42.5,1.2,52c1.2,7.1,2.4,11.8,9.4,13c3.5,1.2,8.3,1.2,10.6,1.2
		c1.2,0,1.2,1.2,1.2,1.2c0,1.2-1.2,2.4-3.5,2.4c-13,0-27.2-1.2-28.4-1.2c-1.2,0-16.5,1.2-23.6,1.2c-2.4,0-3.5,0-3.5-2.4
		c0,0,0-1.2,1.2-1.2c2.4,0,4.7,0,7.1-1.2c4.7-1.2,5.9-5.9,7.1-13c1.2-9.4,1.2-28.3,1.2-52v-42.5V95.8c-1.2-8.3-3.5-13-8.3-14.2
		c-2.4,0-5.9-1.2-7.1-1.2c-1.2,0-2.4,0-2.4-1.2c0-1.2,1.2-2.4,3.5-2.4c8.3,0,23.6,1.2,24.8,1.2s15.4-1.2,22.4-1.2
		c2.4,0,3.5,1.2,3.5,2.4c0,1.2-1.2,1.2-1.2,1.2c-2.4,0-3.5,1.2-5.9,1.2c-7.1,1.2-8.3,4.7-9.5,14.2L1414.7,189.1L1414.7,189.1
		L1414.7,189.1z M1503.3,225.7c1.2,20.1,3.5,26,9.5,28.3c4.7,1.2,9.5,1.2,11.8,1.2c1.2,0,2.4,1.2,2.4,1.2c0,2.4-1.2,2.4-4.7,2.4
		c-13,0-22.4-1.2-24.8-1.2s-11.8,1.2-22.4,1.2c-2.4,0-3.5,0-3.5-2.4c0,0,0-1.2,1.2-1.2c2.4,0,5.9,0,9.5-1.2
		c5.9-1.2,7.1-8.3,7.1-30.7v-137c0-9.5,1.2-11.8,3.5-11.8c1.2,0,5.9,4.7,8.3,7.1c3.5,4.7,39,42.5,74.4,82.7
		c19.3,20.5,38.2,41.3,56.7,62.6l-2.4-121.6c0-16.5-1.2-21.3-9.4-23.6c-3.5,0-9.5-1.2-10.6-1.2c-2.4,0-2.4,0-2.4-1.2
		c0-1.2,2.4-2.4,4.7-2.4c10.6,0,22.4,1.2,24.8,1.2h22.4c2.4,0,4.7,0,4.7,1.2c0,1.2-1.2,2.4-2.4,2.4h-5.9c-8.3,2.4-9.5,7.1-9.5,21.3
		l-2.4,138.2c0,15.3-1.2,18.9-2.4,18.9c-2.4,0-4.7-2.4-17.7-15.4c-2.4-2.4-36.6-36.6-61.4-64.9c-27.2-29.5-36.6-42.5-55.5-66.1
		L1503.3,225.7z M1731.2,172.6v52c0,5.9,1.2,16.5,2.4,18.9c3.5,4.7,13,9.5,40.2,9.5c22.4,0,42.5-8.3,56.7-22.4
		c13-11.8,18.9-35.4,18.9-56.7c0-30.7-13-50.8-22.4-61.4c-22.4-23.6-49.6-27.2-77.9-27.2c-4.7,0-13,1.2-15.4,2.4
		c-1.2,1.2-2.4,2.4-2.4,4.7L1731.2,172.6L1731.2,172.6z M1711.1,146.6V95.8c-1.2-8.3-2.4-13-10.6-14.2c-2.4,0-5.9-1.2-8.3-1.2
		c-1.2,0-1.2,0-1.2-1.2c0-1.2,1.2-2.4,3.5-2.4c10.6,0,24.8,1.2,26,1.2c3.5,0,17.7-1.2,31.9-1.2c23.6,0,67.3-1.2,95.7,28.4
		c11.8,11.8,22.4,31.9,22.4,60.2c0,30.7-11.8,53.1-24.8,67.3c-10.6,11.8-31.9,28.3-72,28.3c-20.1,0-50.8-3.5-53.1-3.5
		c-1.2,0-15.4,1.2-22.4,1.2c-2.4,0-3.5,0-3.5-2.4c0,0,0-1.2,1.2-1.2c2.4,0,4.7,0,7.1-1.2c4.7-1.2,5.9-5.9,7.1-13
		c1.2-9.4,1.2-28.3,1.2-52L1711.1,146.6L1711.1,146.6L1711.1,146.6z M1976.8,179.7c1.2,0,1.2-1.2,1.2-2.4l-22.4-63.8
		c-1.2-3.5-2.4-3.5-3.5,0l-21.3,63.8c0,1.2,0,2.4,1.2,2.4H1976.8z M1952,84c3.5-8.3,4.7-9.5,5.9-9.5c1.2,0,2.4,1.2,4.7,8.3
		c3.5,9.4,41.3,108.6,55.5,144.1c8.3,21.3,15.4,26,20.1,27.2c3.5,1.2,7.1,1.2,9.5,1.2c1.2,0,2.4,0,2.4,1.2c0,2.4-2.4,2.4-4.7,2.4
		h-36.6c-4.7-1.2-7.1-1.2-7.1-2.4c0-1.2,0-1.2,1.2-1.2c1.2-1.2,2.4-2.4,1.2-7.1l-21.3-59c-1.2-1.2-1.2-1.2-2.4-1.2h-50.8
		c-1.3,0.1-2.3,1.1-2.4,2.4l-14.2,42.5c-2.4,5.9-3.5,11.8-3.5,15.4c0,4.7,4.7,7.1,9.5,7.1h1.2c2.4,0,3.5,1.2,3.5,1.2
		c0,2.4-2.4,2.4-3.5,2.4c-5.9,0-16.5-1.2-18.9-1.2s-15.4,1.2-27.2,1.2c-2.4,0-4.7,0-4.7-2.4c0,0,1.2-1.2,2.4-1.2h7.1
		c10.6-2.4,15.4-10.6,20.1-22.4L1952,84L1952,84z"/>
</g>
</svg>
