<?xml version="1.0" encoding="utf-8"?>
<!-- Generator: Adobe Illustrator 24.2.1, SVG Export Plug-In . SVG Version: 6.00 Build 0)  -->
<svg version="1.1" id="Layer_1" xmlns="http://www.w3.org/2000/svg" xmlns:xlink="http://www.w3.org/1999/xlink" x="0px" y="0px"
	 viewBox="0 0 100 100" style="enable-background:new 0 0 100 100;" xml:space="preserve">
<style type="text/css">
	.st0{fill:#4B4A4A;}
</style>
<path class="st0" d="M62.5,61.9H28.4c-1,0-1.8,0.8-1.8,1.8s0.8,1.8,1.8,1.8h34.1c1,0,1.8-0.8,1.8-1.8C64.3,62.7,63.5,61.9,62.5,61.9
	z M62.5,69.9H28.4c-1,0-1.8,0.8-1.8,1.8s0.8,1.8,1.8,1.8h34.1c1,0,1.8-0.8,1.8-1.8C64.3,70.8,63.5,69.9,62.5,69.9z M62.5,78H28.4
	c-1,0-1.8,0.8-1.8,1.8s0.8,1.8,1.8,1.8h34.1c1,0,1.8-0.8,1.8-1.8S63.5,78,62.5,78z M62.5,23.5H49.7c-1,0-1.8,0.8-1.8,1.8
	s0.8,1.8,1.8,1.8h12.7c1,0,1.8-0.8,1.8-1.8C64.3,24.3,63.5,23.5,62.5,23.5z M66.7,12.5H24.3c-5.7,0-10.3,4.6-10.3,10.3v58.8
	c0,5.7,4.6,10.3,10.3,10.3h42.4c5.7,0,10.3-4.6,10.3-10.3V22.7C76.9,17.1,72.3,12.5,66.7,12.5z M72.8,81.6c0,3.4-2.8,6.1-6.2,6.2
	H24.3c-3.4,0-6.1-2.8-6.2-6.2V22.7c0-3.4,2.8-6.1,6.2-6.2h42.4c3.4,0,6.1,2.8,6.2,6.2L72.8,81.6L72.8,81.6z M62.5,32.5H49.7
	c-1,0-1.8,0.8-1.8,1.8s0.8,1.8,1.8,1.8h12.7c1,0,1.8-0.8,1.8-1.8C64.3,33.3,63.5,32.5,62.5,32.5z M79.6,5.2c-3.3-2-6.7-2.1-7.8-2.1
	c-0.2,0-0.3,0-0.4,0H27.5v4.1h44.1h0.1c0,0,0,0,0.2,0c0.7,0,3.4,0.1,5.7,1.5c2.2,1.4,4.3,3.7,4.4,9.2c0,60.8,0,60.8,0,60.8h4
	c0,0,0,0,0-60.8C86,11.2,83,7.1,79.6,5.2z M29,50.1h14c1.4,0,2.5-1.1,2.5-2.5V25.9c0-1.4-1.1-2.5-2.5-2.5H29c-1.4,0-2.5,1.1-2.5,2.5
	v21.7C26.5,49,27.6,50.1,29,50.1z"/>
</svg>
