<?xml version="1.0" encoding="utf-8"?>
<!-- Generator: Adobe Illustrator 24.2.1, SVG Export Plug-In . SVG Version: 6.00 Build 0)  -->
<svg version="1.1" id="Layer_1" xmlns="http://www.w3.org/2000/svg" xmlns:xlink="http://www.w3.org/1999/xlink" x="0px" y="0px"
	 viewBox="0 0 100 100" style="enable-background:new 0 0 100 100;" xml:space="preserve">
<style type="text/css">
	.st0{fill:#F29D1F;}
</style>
<path class="st0" d="M62.5,63.9H28.4c-1,0-1.8,0.8-1.8,1.8c0,1,0.8,1.8,1.8,1.8h34.1c1,0,1.8-0.8,1.8-1.8
	C64.3,64.7,63.5,63.9,62.5,63.9z M62.5,71.9H28.4c-1,0-1.8,0.8-1.8,1.8c0,1,0.8,1.8,1.8,1.8h34.1c1,0,1.8-0.8,1.8-1.8
	C64.3,72.8,63.5,71.9,62.5,71.9z M62.5,80H28.4c-1,0-1.8,0.8-1.8,1.8c0,1,0.8,1.8,1.8,1.8h34.1c1,0,1.8-0.8,1.8-1.8
	C64.3,80.8,63.5,80,62.5,80z M62.5,25.5H49.7c-1,0-1.8,0.8-1.8,1.8c0,1,0.8,1.8,1.8,1.8h12.7c1,0,1.8-0.8,1.8-1.8
	C64.3,26.3,63.5,25.5,62.5,25.5z M66.7,14.5l-42.4,0c-5.7,0-10.3,4.6-10.3,10.3v58.8c0,5.7,4.6,10.3,10.3,10.3h42.4
	c5.7,0,10.3-4.6,10.3-10.3V24.7C76.9,19.1,72.3,14.5,66.7,14.5z M72.8,83.6c0,3.4-2.8,6.1-6.2,6.2H24.3c-3.4,0-6.1-2.8-6.2-6.2V24.7
	c0-3.4,2.8-6.1,6.2-6.2h42.4c3.4,0,6.1,2.8,6.2,6.2V83.6z M62.5,34.5H49.7c-1,0-1.8,0.8-1.8,1.8c0,1,0.8,1.8,1.8,1.8h12.7
	c1,0,1.8-0.8,1.8-1.8C64.3,35.3,63.5,34.5,62.5,34.5z M79.6,7.2c-3.3-2-6.7-2.1-7.8-2.1c-0.2,0-0.3,0-0.4,0H27.5v4.1h44.1l0.1,0
	c0,0,0,0,0.2,0c0.7,0,3.4,0.1,5.7,1.5c2.2,1.4,4.3,3.7,4.4,9.2c0,60.8,0,60.8,0,60.8H86c0,0,0,0,0-60.8C86,13.2,83,9.1,79.6,7.2z
	 M29,52.1h14c1.4,0,2.5-1.1,2.5-2.5V27.9c0-1.4-1.1-2.5-2.5-2.5H29c-1.4,0-2.5,1.1-2.5,2.5v21.7C26.5,51,27.6,52.1,29,52.1z"/>
<g>
</g>
<g>
</g>
<g>
</g>
<g>
</g>
<g>
</g>
<g>
</g>
</svg>
