<?xml version="1.0" encoding="utf-8"?>
<!-- Generator: Adobe Illustrator 24.2.1, SVG Export Plug-In . SVG Version: 6.00 Build 0)  -->
<svg version="1.1" id="Layer_1" xmlns="http://www.w3.org/2000/svg" xmlns:xlink="http://www.w3.org/1999/xlink" x="0px" y="0px"
	 viewBox="0 0 100 100" style="enable-background:new 0 0 100 100;" xml:space="preserve">
<style type="text/css">
	.st0{fill-rule:evenodd;clip-rule:evenodd;fill:#F29D1F;}
</style>
<path class="st0" d="M22,70.8c0-1.7-1.4-3.1-3.1-3.1h-6.2c-1.7,0-3.1,1.4-3.1,3.1c0,1.7,1.4,3.1,3.1,3.1h6.2
	C20.6,73.9,22,72.5,22,70.8z M83.7,9.3l-6.2-0.2c0-1.7-1.4-3.1-3.1-3.1H19.1c-1.7,0-3.1,1.4-3.1,3.1v6h3.1c0,0,6.1,0.6,6.1,6.2
	c0,0,0.1,6.2-6.3,6.2L16,27.7L16,39.8h2.9c0,0,6.3,0,6.3,6.6c0,0-0.6,6-6.4,6l-2.9,0l-0.1,12.1H19c0,0,6.2,0.2,6.2,6.4
	c0,0,0,6.4-6.4,6.4L16,77l0,6.2c0,0,3.5,9.3,8.9,9.3h59c0,0,2.9-0.6,2.9-2.9V12.4C86.8,12.4,86.2,9.3,83.7,9.3z M31.3,27.7h40.1
	v24.7H31.3V27.7z M77.5,86.3H25.1c0,0-3.2-1.1-3.2-3.2l52.5,0c1.7,0,3.1-1.4,3.1-3.1v-68l3.2,1.1v70.4
	C80.7,83.4,80.8,86.3,77.5,86.3z M12.8,24.6h6.2c1.7,0,3.1-1.4,3.1-3.1c0-1.7-1.4-3.1-3.1-3.1h-6.2c-1.7,0-3.1,1.4-3.1,3.1
	C9.7,23.2,11.1,24.6,12.8,24.6z M9.8,46.2c0,1.7,1.4,3.1,3.1,3.1h6c1.7,0,3.1-1.4,3.1-3.1c0-1.7-1.4-3.1-3.1-3.1h-6
	C11.2,43.1,9.8,44.5,9.8,46.2z M63.7,33.8H39c-0.9,0-1.5,0.7-1.5,1.5c0,0.9,0.7,1.5,1.5,1.5h24.7c0.9,0,1.5-0.7,1.5-1.5
	C65.2,34.5,64.5,33.8,63.7,33.8z M63.7,43.1H39c-0.9,0-1.5,0.7-1.5,1.5c0,0.9,0.7,1.5,1.5,1.5h24.7c0.9,0,1.5-0.7,1.5-1.5
	C65.2,43.8,64.5,43.1,63.7,43.1z"/>
<g>
</g>
<g>
</g>
<g>
</g>
<g>
</g>
<g>
</g>
<g>
</g>
</svg>
