<svg id="bc9547b4-0dcb-4780-8a09-b89f017ff0a9" data-name="art" xmlns="http://www.w3.org/2000/svg" viewBox="0 0 200 90"><defs><style>.eedfbc38-a6d5-4080-9154-7143b2e4e3b2{fill:#375e2d;}.bdccbf7e-d463-4ac0-8fb5-2c3f25a65747{fill:#efcb16;}</style></defs><path class="eedfbc38-a6d5-4080-9154-7143b2e4e3b2" d="M181.42,31.21h-2.86v23h2.86ZM166,46.55h-9.75l4.89-12.38Zm6.17,7.65-9.27-23h-3.55l-9.24,23h3.27l2-5.1H166.9l2,5.1ZM140.7,54a7.66,7.66,0,0,0,2.64-1.53,5.49,5.49,0,0,0,1.46-2.18,7,7,0,0,0,.45-2.46,5.73,5.73,0,0,0-.58-2.72,6,6,0,0,0-1.54-1.87A8.65,8.65,0,0,0,141,42a25.66,25.66,0,0,0-2.52-.84l-2.51-.69a12.7,12.7,0,0,1-2.17-.78,4.89,4.89,0,0,1-1.54-1.07,2.21,2.21,0,0,1-.59-1.58A3.19,3.19,0,0,1,133,34.41a5.55,5.55,0,0,1,3.4-1,10.06,10.06,0,0,1,3.62.66,7.83,7.83,0,0,1,3,2.1l1.73-2.1a9.64,9.64,0,0,0-3.49-2.38,12.38,12.38,0,0,0-4.69-.83,10.16,10.16,0,0,0-3.13.47,7.71,7.71,0,0,0-2.5,1.31,6.1,6.1,0,0,0-1.66,2,5.57,5.57,0,0,0-.6,2.58,5.09,5.09,0,0,0,.59,2.59,5.56,5.56,0,0,0,1.53,1.74A8.61,8.61,0,0,0,133,42.72q1.23.45,2.52.81l2.52.69a10.78,10.78,0,0,1,2.17.83,4.83,4.83,0,0,1,1.53,1.22,2.85,2.85,0,0,1,.59,1.83,3.6,3.6,0,0,1-.28,1.36,3.42,3.42,0,0,1-.89,1.28,5.14,5.14,0,0,1-1.66.95,7.64,7.64,0,0,1-2.58.38,9.25,9.25,0,0,1-2.28-.28,10.09,10.09,0,0,1-2-.72A8.62,8.62,0,0,1,131,50a10.52,10.52,0,0,1-1.32-1.22L128,51a11,11,0,0,0,3.62,2.64,12.12,12.12,0,0,0,5.2,1A11.62,11.62,0,0,0,140.7,54m-23.41-7.48h-9.75l4.89-12.38Zm6.17,7.65-9.27-23h-3.55l-9.24,23h3.27l2-5.1h11.44l2,5.1Zm-31.82,0V33.76H99V31.21H81.51v2.55h7.27V54.2Z"/><path class="eedfbc38-a6d5-4080-9154-7143b2e4e3b2" d="M182.71,66.88l-1.25-1.81,1.17-1.72h-1l-.73,1.08-.73-1.08h-1l1.18,1.72L179,66.88h1l.81-1.19.81,1.19Zm-4.78-2.1h-1.74a.83.83,0,0,1,.87-.76.81.81,0,0,1,.87.76M177.12,67a2.2,2.2,0,0,0,1.45-.48l-.42-.62a1.45,1.45,0,0,1-.93.35,1,1,0,0,1-1-.79h2.62V65.2a1.75,1.75,0,0,0-1.76-1.93,1.85,1.85,0,1,0,.06,3.69m-4.31-.82a1,1,0,0,1,0-2,1,1,0,0,1,.8.4v1.25a1,1,0,0,1-.8.4m1.73.74V62h-.93v1.8a1.34,1.34,0,0,0-1.09-.54A1.62,1.62,0,0,0,171,65.11c0,1.18.67,1.85,1.56,1.85a1.36,1.36,0,0,0,1.09-.53v.45Zm-4.27,0V64.39a1,1,0,0,0-1.15-1.12,1.64,1.64,0,0,0-1.24.54v-.46H167v3.53h.92V64.5a1,1,0,0,1,.81-.41.58.58,0,0,1,.65.66v2.13ZM166,62h-1v4.87h1ZM160.87,67c1,0,1.53-.47,1.53-1.12,0-1.42-2.09-1-2.09-1.5,0-.2.22-.34.55-.34a1.53,1.53,0,0,1,1,.4l.37-.65a2.22,2.22,0,0,0-1.42-.48c-.93,0-1.44.51-1.44,1.1,0,1.39,2.09.92,2.09,1.49,0,.22-.19.38-.6.38a2,2,0,0,1-1.21-.49l-.4.67a2.37,2.37,0,0,0,1.57.54m-3.48,0c1,0,1.53-.47,1.53-1.12,0-1.42-2.09-1-2.09-1.5,0-.2.22-.34.55-.34a1.53,1.53,0,0,1,1.05.4l.37-.65a2.24,2.24,0,0,0-1.42-.48c-.93,0-1.44.51-1.44,1.1,0,1.39,2.09.92,2.09,1.49,0,.22-.19.38-.6.38a2,2,0,0,1-1.21-.49l-.41.67a2.42,2.42,0,0,0,1.58.54m-2.83-2.18h-1.74a.82.82,0,0,1,.86-.76.81.81,0,0,1,.88.76M153.74,67a2.19,2.19,0,0,0,1.45-.48l-.41-.62a1.5,1.5,0,0,1-.94.35.94.94,0,0,1-1-.79h2.62V65.2a1.76,1.76,0,0,0-1.77-1.93,1.85,1.85,0,1,0,.06,3.69m-3.65,0a1.64,1.64,0,0,0,1.39-.64l-.61-.57a.87.87,0,0,1-.74.39,1,1,0,0,1,0-2,.84.84,0,0,1,.74.38l.61-.57a1.63,1.63,0,0,0-1.39-.63,1.85,1.85,0,1,0,0,3.69m-3.65,0a1.66,1.66,0,0,0,1.4-.64l-.61-.57a.88.88,0,0,1-.74.39,1,1,0,0,1,0-2,.85.85,0,0,1,.74.38l.61-.57a1.65,1.65,0,0,0-1.4-.63,1.85,1.85,0,1,0,0,3.69m-3.83-1.82h-1.52l.76-2.09Zm1.76,1.74L142.5,62h-1.3l-1.88,4.87h1.18l.3-.83h2.09l.31.83Zm-9.08-.74a1,1,0,0,1,0-2,1,1,0,0,1,.79.4v1.25a1,1,0,0,1-.79.4m1.73.74V62h-.94v1.8a1.33,1.33,0,0,0-1.09-.54,1.63,1.63,0,0,0-1.56,1.84c0,1.18.68,1.85,1.56,1.85a1.34,1.34,0,0,0,1.09-.53v.45Zm-4.92-2.1h-1.74a.88.88,0,0,1,1.74,0M131.28,67a2.19,2.19,0,0,0,1.45-.48l-.41-.62a1.5,1.5,0,0,1-.94.35.94.94,0,0,1-1-.79H133V65.2a1.76,1.76,0,0,0-1.77-1.93,1.85,1.85,0,1,0,.06,3.69m-3.22-2.18h-1.74a.83.83,0,0,1,.87-.76.81.81,0,0,1,.87.76M127.24,67a2.21,2.21,0,0,0,1.46-.48l-.42-.62a1.45,1.45,0,0,1-.93.35,1,1,0,0,1-1-.79H129V65.2a1.76,1.76,0,0,0-1.76-1.93,1.85,1.85,0,1,0,0,3.69M123,67c1.3,0,2-.67,2-1.56,0-1.81-2.8-1.3-2.8-2.06,0-.29.25-.48.69-.48a2.05,2.05,0,0,1,1.41.53l.58-.77a2.68,2.68,0,0,0-1.9-.68c-1.14,0-1.84.67-1.84,1.48,0,1.83,2.8,1.24,2.8,2.09,0,.28-.27.54-.85.54a2.16,2.16,0,0,1-1.55-.67l-.56.81A2.8,2.8,0,0,0,123,67m-4.55-.08V64.39a1,1,0,0,0-1.15-1.12,1.64,1.64,0,0,0-1.24.54v-.46h-.92v3.53H116V64.5a1,1,0,0,1,.81-.41.58.58,0,0,1,.65.66v2.13Zm-5.9-.54c-.37,0-.67-.19-.67-.53s.3-.53.67-.53a.93.93,0,0,1,.74.31V66a.9.9,0,0,1-.74.31m1.68.54V64.6c0-1-.74-1.33-1.55-1.33a2.25,2.25,0,0,0-1.54.55l.36.65a1.52,1.52,0,0,1,1-.42c.47,0,.77.24.77.6v.44a1.42,1.42,0,0,0-1.11-.43,1.12,1.12,0,0,0-1.22,1.14A1.16,1.16,0,0,0,112.15,67a1.42,1.42,0,0,0,1.11-.45v.37Zm-5,.08a1.64,1.64,0,0,0,1.39-.64l-.61-.57a.87.87,0,0,1-.74.39,1,1,0,0,1,0-2,.84.84,0,0,1,.74.38l.61-.57a1.63,1.63,0,0,0-1.39-.63,1.85,1.85,0,1,0,0,3.69m-2.56-3.61h-.93v3.53h.93Zm-.47-.38a.55.55,0,1,0-.55-.55.55.55,0,0,0,.55.55M104,66.88V64.55a1.16,1.16,0,0,1,.87-.4.86.86,0,0,1,.25,0v-.9a1.51,1.51,0,0,0-1.12.56v-.48H103v3.53Zm-2.18,0V64.16h.72v-.81h-.72v-.14c0-.35.18-.51.44-.51a.55.55,0,0,1,.39.14l.35-.57a1.23,1.23,0,0,0-.92-.33,1.14,1.14,0,0,0-1.18,1.27v.14h-.59v.81h.59v2.72Zm-3.19-1.74H97.08l.76-2.09Zm1.77,1.74L98.49,62h-1.3l-1.88,4.87h1.18l.3-.83h2.09l.31.83Zm-8-2.1H90.63a.87.87,0,0,1,1.73,0M91.55,67A2.2,2.2,0,0,0,93,66.48l-.42-.62a1.45,1.45,0,0,1-.93.35,1,1,0,0,1-1-.79h2.62V65.2a1.75,1.75,0,0,0-1.76-1.93A1.85,1.85,0,1,0,91.55,67M89,66.88V64.37a1,1,0,0,0-1.15-1.1,1.62,1.62,0,0,0-1.23.54V62h-.93v4.87h.93V64.5a1,1,0,0,1,.8-.41c.4,0,.65.15.65.64v2.15Zm-5.37,0v-4H85V62H81.13v.91h1.43v4Z"/><path class="bdccbf7e-d463-4ac0-8fb5-2c3f25a65747" d="M66.32,29.28c1.59,2.12,1.82,4.65.51,5.63s-3.68.06-5.27-2.06-3.41-6.41-2.1-7.39,5.26,1.7,6.86,3.82"/><path class="bdccbf7e-d463-4ac0-8fb5-2c3f25a65747" d="M42,15c1.86.07,3.26.71,3.12,1.43s-1.77,1.23-3.64,1.15-4.93-.69-4.78-1.4S40.12,14.93,42,15"/><path class="bdccbf7e-d463-4ac0-8fb5-2c3f25a65747" d="M22,23c1.6-1.65,3.28-2.65,3.76-2.24s-.42,2.09-2,3.75-4.64,4.18-5.12,3.76S20.45,24.68,22,23"/><path class="eedfbc38-a6d5-4080-9154-7143b2e4e3b2" d="M14.32,34.11c.78-2.54,2.21-4.49,3.2-4.35s1.16,2.32.38,4.86-2.77,6.77-3.76,6.63-.6-4.6.18-7.14"/><path class="bdccbf7e-d463-4ac0-8fb5-2c3f25a65747" d="M12.1,47.44c-.14-2.23.74-4.23,2-4.47s2.32,1.37,2.46,3.6-.48,6.17-1.7,6.42-2.6-3.32-2.73-5.55"/><path class="eedfbc38-a6d5-4080-9154-7143b2e4e3b2" d="M15.74,61.6c-1.43-2.43-1.53-5.07-.2-5.91s3.56.45,5,2.87,3,7.1,1.65,7.94-5-2.48-6.45-4.9"/><path class="eedfbc38-a6d5-4080-9154-7143b2e4e3b2" d="M44.28,75.24c-.67-.87-3.77-1.31-5.08-1.38-1.89-.1-3.9.36-4.14,1.44a1,1,0,0,0,.22.84,4.75,4.75,0,0,0,3.34,1.16h.43c1.55,0,5.13-.28,5.38-1.46A.77.77,0,0,0,44.28,75.24Z"/><path class="bdccbf7e-d463-4ac0-8fb5-2c3f25a65747" d="M49.17,75.45c-1.31.45-2.46.46-2.57,0s.87-1.2,2.18-1.66,3.62-.92,3.73-.46-2,1.66-3.34,2.12"/><path class="eedfbc38-a6d5-4080-9154-7143b2e4e3b2" d="M34.63,16.59a.76.76,0,0,0-.44-.48,4.23,4.23,0,0,0-2.87.39h0s-4,1.77-3.64,2.94a.64.64,0,0,0,.35.39,1.33,1.33,0,0,0,.53.09A13.86,13.86,0,0,0,32.17,19C33.22,18.55,34.92,17.55,34.63,16.59Z"/><path class="eedfbc38-a6d5-4080-9154-7143b2e4e3b2" d="M58,70.4c-1.41,1.28-3,1.91-3.49,1.38s.23-2,1.66-3.28,4.17-3.11,4.68-2.59S59.41,69.11,58,70.4"/><path class="bdccbf7e-d463-4ac0-8fb5-2c3f25a65747" d="M66.45,59.52c-1.23,2.49-3,4.27-3.91,3.95s-.69-2.57.53-5.07S67,51.89,68,52.2s-.28,4.83-1.5,7.32"/><path class="eedfbc38-a6d5-4080-9154-7143b2e4e3b2" d="M70.6,43.62c.35,2.64-.67,5.12-2.27,5.54s-3.18-1.4-3.53-4,.16-7.41,1.77-7.82,3.69,3.68,4,6.32"/><path class="bdccbf7e-d463-4ac0-8fb5-2c3f25a65747" d="M26.39,72.76c-2.2-1.25-3.51-2.92-2.92-3.74s2.83-.47,5,.78,5.54,3.93,5,4.75-4.86-.54-7.06-1.79"/><path class="eedfbc38-a6d5-4080-9154-7143b2e4e3b2" d="M55.85,18.23c2.63,1.43,4,3.77,2.95,5.23s-4,1.5-6.6.07-6.43-4.84-5.42-6.3,6.43-.42,9.07,1"/><path class="eedfbc38-a6d5-4080-9154-7143b2e4e3b2" d="M47.16,29.51a4.67,4.67,0,0,1,1.77,1,3.28,3.28,0,0,1,.2.31,24.74,24.74,0,0,1,2.55,4,15.62,15.62,0,0,0,1.48,2.66c.14.19.08.57.24.7.55.43,1.18.77,1.74,1.2a5,5,0,0,1,.73.9,9.28,9.28,0,0,0,.73,1c.08.08.38,0,.57-.07s.55-.18.82-.27l2-.63a.32.32,0,0,1,.24,0,.34.34,0,0,1,.07.25,3.62,3.62,0,0,1-.09.87,7.09,7.09,0,0,1-.86,2.35,48.41,48.41,0,0,1-3.48,3.7c-.43.45-.94.84-1.36,1.31-.22.25-.24.67-.47.92-.8.87-.18,1.78-.1,2.65,0,.48.49.93.5,1.4,0,1.15.48,2.42-.64,3.34-.26.21-.64.29-.9.49-.67.54-1.32,1.12-2,1.69a.26.26,0,0,0,0,.27,1.68,1.68,0,0,1-.58,2.72,1.34,1.34,0,0,0-.61.61c-.18.39-.13.9-.36,1.23a9,9,0,0,1-1.69,2,9.28,9.28,0,0,1-2.53,1.38,5.49,5.49,0,0,1-2.11.2A1.87,1.87,0,0,1,42,67.17c-.15-.13.05-.58-.07-.8A18.93,18.93,0,0,1,40.56,64a24,24,0,0,1-.79-3.27.21.21,0,0,0,0-.11,18.92,18.92,0,0,1-1.32-2,2.45,2.45,0,0,1-.18-1.51c.22-.88.72-1.71.89-2.6a3,3,0,0,0-.31-1.74A12.12,12.12,0,0,0,37,49.62c-.55-.61-1.14-.94-.76-1.88a3.17,3.17,0,0,0,.24-1.48A3.51,3.51,0,0,0,36,45c0-.06-.28,0-.41,0-.87.23-1.72.49-1.9-.86,0-.15-.45-.39-.63-.35-1,.24-1.9.56-2.84.86a2.61,2.61,0,0,1-.7.23,9.9,9.9,0,0,0-2,0,4.4,4.4,0,0,1-4.13-1.79c-.38-.77-.83-1.49-1.25-2.23,0,0-.08,0-.11,0a3.73,3.73,0,0,1-.58-.69,6.15,6.15,0,0,1-.33-1v-.07a.58.58,0,0,0,.14,0,4.66,4.66,0,0,0,1-3.24s0,0,0-.08c0-.31-.07-.68.07-.91a13.3,13.3,0,0,1,1.43-1.9,20.14,20.14,0,0,1,1.77-1.56c.26-.22.59-.34.82-.57a5.19,5.19,0,0,0,.6-.85c.36-.54.68-1.13,1.09-1.63a11.69,11.69,0,0,1,1.2-1.13c.12-.1.27-.27.38-.26.32.06.65.31.94.26,1-.15,2-.41,3-.59.74-.14,1.49-.2,2.24-.31l1.37-.22h0c0,.26.65.26.32.7,0,0,0,0,0,0,0,.27-.06.53-.1.8a3.27,3.27,0,0,0-.08.49c.65.23,1.32.42,2,.63a2,2,0,0,1,.54.21c.21.17.35.43.58.56a3.26,3.26,0,0,0,1,.37,1.83,1.83,0,0,0,.8-.07c.06,0,0-.3.06-.46s.11-.49.25-.58c.81-.5,1.51.07,2.25.26a16,16,0,0,0,2.45.47"/></svg>