<svg id="Layer_1" data-name="Layer 1" xmlns="http://www.w3.org/2000/svg" xmlns:xlink="http://www.w3.org/1999/xlink" viewBox="0 0 551.11 202.27"><defs><style>.cls-1{fill:none;}.cls-2,.cls-5,.cls-6{fill:#fff;}.cls-3{clip-path:url(#clip-path);}.cls-4{fill:#48784b;}.cls-5,.cls-6{stroke:#fff;stroke-miterlimit:10;}.cls-5{stroke-width:3px;}</style><clipPath id="clip-path" transform="translate(-27.1 -28.91)"><rect class="cls-1" x="27.1" y="28.9" width="652.49" height="205.27"/></clipPath></defs><path class="cls-2" d="M274.82,156.53v-66H251.33V82.25h56.34v8.24H284.06v66Z" transform="translate(-27.1 -28.91)"/><path class="cls-2" d="M376.27,156.53,369.7,140h-37l-6.57,16.49H315.58l29.84-74.28h11.47l29.95,74.28Zm-25.06-64.7-15.81,40h31.51Z" transform="translate(-27.1 -28.91)"/><path class="cls-2" d="M429.83,157.86A39.4,39.4,0,0,1,413,154.58a35.76,35.76,0,0,1-11.69-8.52l5.46-7a32.59,32.59,0,0,0,4.23,4,29,29,0,0,0,5.4,3.39,32.75,32.75,0,0,0,6.4,2.34,29,29,0,0,0,7.35.89,24.67,24.67,0,0,0,8.35-1.22,16,16,0,0,0,5.35-3.07,10.91,10.91,0,0,0,2.89-4.12,11.9,11.9,0,0,0,.89-4.39,9.1,9.1,0,0,0-1.89-5.91,15.7,15.7,0,0,0-5-4,33.79,33.79,0,0,0-7-2.67q-4-1.07-8.13-2.23t-8.13-2.62a27.06,27.06,0,0,1-7-3.73,17.83,17.83,0,0,1-5-5.62,16.77,16.77,0,0,1-1.89-8.35,18,18,0,0,1,1.95-8.35A20,20,0,0,1,411,86.87,25.07,25.07,0,0,1,419,82.64a33.05,33.05,0,0,1,10.14-1.5,40,40,0,0,1,15.14,2.67,31.31,31.31,0,0,1,11.25,7.68L450,98.29a25.26,25.26,0,0,0-9.8-6.8,32.64,32.64,0,0,0-11.69-2.11,17.77,17.77,0,0,0-11,3.23,10.2,10.2,0,0,0-4.29,8.57,7.11,7.11,0,0,0,1.9,5.12,16.3,16.3,0,0,0,4.95,3.46,41.47,41.47,0,0,0,7,2.5q3.94,1.06,8.13,2.23a84.29,84.29,0,0,1,8.13,2.73,26.86,26.86,0,0,1,7,4,19.09,19.09,0,0,1,5,6,18.62,18.62,0,0,1,1.89,8.8,22.91,22.91,0,0,1-1.45,8,17.91,17.91,0,0,1-4.73,7,24.41,24.41,0,0,1-8.52,5A37.54,37.54,0,0,1,429.83,157.86Z" transform="translate(-27.1 -28.91)"/><path class="cls-2" d="M533.72,156.53,527.15,140h-37l-6.57,16.49H473l29.84-74.28h11.47l30,74.28Zm-25.05-64.7-15.82,40h31.52Z" transform="translate(-27.1 -28.91)"/><path class="cls-2" d="M564.79,156.53V82.25H574v74.28Z" transform="translate(-27.1 -28.91)"/><path class="cls-2" d="M254.72,197.46V184.68h-4.6v-2.94h12.54v2.94h-4.57v12.78Z" transform="translate(-27.1 -28.91)"/><path class="cls-2" d="M272.44,197.46v-6.93c0-1.58-.82-2.07-2.09-2.07a3.31,3.31,0,0,0-2.6,1.32v7.68h-3V181.74h3v5.8a5.3,5.3,0,0,1,4-1.75c2.5,0,3.7,1.37,3.7,3.59v8.08Z" transform="translate(-27.1 -28.91)"/><path class="cls-2" d="M277.68,191.76a5.81,5.81,0,0,1,5.89-6c3.42,0,5.7,2.55,5.7,6.25v.71h-8.46a3,3,0,0,0,3.28,2.54,4.79,4.79,0,0,0,3-1.11l1.34,2a7.07,7.07,0,0,1-4.69,1.58A5.76,5.76,0,0,1,277.68,191.76Zm5.89-3.52a2.63,2.63,0,0,0-2.78,2.43h5.61A2.62,2.62,0,0,0,283.57,188.24Z" transform="translate(-27.1 -28.91)"/><path class="cls-2" d="M308.44,197.46l-1-2.66H300.7l-1,2.66h-3.79L302,181.74h4.19l6.06,15.72Zm-4.37-12.38-2.45,6.77h4.91Z" transform="translate(-27.1 -28.91)"/><path class="cls-2" d="M313.83,197.46v-8.77H312v-2.62h1.88v-.47c0-2.57,1.53-4.1,3.82-4.1a4,4,0,0,1,3,1.08l-1.13,1.82a1.78,1.78,0,0,0-1.25-.45c-.85,0-1.41.55-1.41,1.65v.47h2.31v2.62h-2.31v8.77Z" transform="translate(-27.1 -28.91)"/><path class="cls-2" d="M320.86,197.46V186.07h3v1.54a5,5,0,0,1,3.63-1.82v2.92a4.34,4.34,0,0,0-.83-.07,3.8,3.8,0,0,0-2.8,1.3v7.52Z" transform="translate(-27.1 -28.91)"/><path class="cls-2" d="M329.06,183.06a1.78,1.78,0,0,1,3.56,0,1.78,1.78,0,1,1-3.56,0Zm.28,14.4V186.07h3v11.39Z" transform="translate(-27.1 -28.91)"/><path class="cls-2" d="M334.57,191.76a5.8,5.8,0,0,1,6-6,5.28,5.28,0,0,1,4.5,2.05l-2,1.84a2.75,2.75,0,0,0-2.4-1.22,3.32,3.32,0,0,0,0,6.62,2.82,2.82,0,0,0,2.4-1.25l2,1.84a5.29,5.29,0,0,1-4.5,2.07A5.79,5.79,0,0,1,334.57,191.76Z" transform="translate(-27.1 -28.91)"/><path class="cls-2" d="M353.9,197.46v-1.2a4.65,4.65,0,0,1-3.61,1.48,3.77,3.77,0,0,1-3.93-3.77c0-2.69,2.12-3.68,3.93-3.68a4.63,4.63,0,0,1,3.61,1.4v-1.44c0-1.16-1-1.91-2.5-1.91a4.82,4.82,0,0,0-3.28,1.34l-1.17-2.1a7.34,7.34,0,0,1,5-1.79c2.62,0,5,1,5,4.32v7.35Zm0-2.73v-1.42a3,3,0,0,0-2.4-1c-1.18,0-2.15.63-2.15,1.72s1,1.7,2.15,1.7A3,3,0,0,0,353.9,194.73Z" transform="translate(-27.1 -28.91)"/><path class="cls-2" d="M367.55,197.46v-6.88a1.85,1.85,0,0,0-2.1-2.12,3.32,3.32,0,0,0-2.59,1.32v7.68h-3V186.07h3v1.47a5.31,5.31,0,0,1,4-1.75c2.52,0,3.73,1.42,3.73,3.63v8Z" transform="translate(-27.1 -28.91)"/><path class="cls-2" d="M378.55,195.25l1.84-2.62a6.93,6.93,0,0,0,5,2.14c1.86,0,2.73-.82,2.73-1.74,0-2.74-9.05-.83-9.05-6.74,0-2.62,2.26-4.79,6-4.79a8.74,8.74,0,0,1,6.13,2.19l-1.87,2.5a6.74,6.74,0,0,0-4.57-1.72c-1.41,0-2.22.61-2.22,1.56,0,2.47,9,.8,9,6.67,0,2.88-2.07,5-6.29,5A9.12,9.12,0,0,1,378.55,195.25Z" transform="translate(-27.1 -28.91)"/><path class="cls-2" d="M393,191.76a5.81,5.81,0,0,1,5.89-6c3.42,0,5.71,2.55,5.71,6.25v.71h-8.47a3.06,3.06,0,0,0,3.28,2.54,4.75,4.75,0,0,0,3-1.11l1.34,2a7.07,7.07,0,0,1-4.69,1.58A5.76,5.76,0,0,1,393,191.76Zm5.89-3.52a2.63,2.63,0,0,0-2.78,2.43h5.61A2.61,2.61,0,0,0,398.87,188.24Z" transform="translate(-27.1 -28.91)"/><path class="cls-2" d="M406,191.76a5.81,5.81,0,0,1,5.9-6c3.41,0,5.7,2.55,5.7,6.25v.71h-8.46a3,3,0,0,0,3.27,2.54,4.75,4.75,0,0,0,3-1.11l1.35,2a7.12,7.12,0,0,1-4.7,1.58A5.76,5.76,0,0,1,406,191.76Zm5.9-3.52a2.63,2.63,0,0,0-2.79,2.43h5.62A2.62,2.62,0,0,0,411.91,188.24Z" transform="translate(-27.1 -28.91)"/><path class="cls-2" d="M427.6,197.46V196a4.38,4.38,0,0,1-3.51,1.74c-2.85,0-5-2.16-5-6s2.14-6,5-6a4.3,4.3,0,0,1,3.51,1.75v-5.8h3v15.72Zm0-3.68v-4a3.25,3.25,0,0,0-2.57-1.29c-1.72,0-2.9,1.34-2.9,3.3s1.18,3.32,2.9,3.32A3.23,3.23,0,0,0,427.6,193.78Z" transform="translate(-27.1 -28.91)"/><path class="cls-2" d="M450.58,197.46l-1-2.66h-6.74l-1,2.66h-3.79l6.06-15.72h4.19l6.06,15.72Zm-4.36-12.38-2.45,6.77h4.91Z" transform="translate(-27.1 -28.91)"/><path class="cls-2" d="M455,191.76a5.79,5.79,0,0,1,6-6,5.31,5.31,0,0,1,4.51,2.05l-2,1.84a2.76,2.76,0,0,0-2.41-1.22,3.32,3.32,0,0,0,0,6.62,2.83,2.83,0,0,0,2.41-1.25l2,1.84a5.31,5.31,0,0,1-4.51,2.07A5.78,5.78,0,0,1,455,191.76Z" transform="translate(-27.1 -28.91)"/><path class="cls-2" d="M466.8,191.76a5.79,5.79,0,0,1,6-6,5.31,5.31,0,0,1,4.51,2.05l-2,1.84a2.76,2.76,0,0,0-2.41-1.22,3.32,3.32,0,0,0,0,6.62,2.83,2.83,0,0,0,2.41-1.25l2,1.84a5.31,5.31,0,0,1-4.51,2.07A5.78,5.78,0,0,1,466.8,191.76Z" transform="translate(-27.1 -28.91)"/><path class="cls-2" d="M478.56,191.76a5.81,5.81,0,0,1,5.89-6c3.42,0,5.71,2.55,5.71,6.25v.71H481.7a3,3,0,0,0,3.27,2.54,4.75,4.75,0,0,0,3-1.11l1.34,2a7.07,7.07,0,0,1-4.69,1.58A5.76,5.76,0,0,1,478.56,191.76Zm5.89-3.52a2.63,2.63,0,0,0-2.78,2.43h5.61A2.61,2.61,0,0,0,484.45,188.24Z" transform="translate(-27.1 -28.91)"/><path class="cls-2" d="M491.33,196l1.3-2.17a6.46,6.46,0,0,0,3.94,1.58c1.3,0,1.91-.5,1.91-1.21,0-1.86-6.74-.33-6.74-4.8,0-1.92,1.65-3.59,4.66-3.59a7.25,7.25,0,0,1,4.58,1.56l-1.21,2.12a4.89,4.89,0,0,0-3.37-1.32c-1.08,0-1.79.47-1.79,1.11,0,1.67,6.77.26,6.77,4.85,0,2.1-1.79,3.63-4.95,3.63A7.74,7.74,0,0,1,491.33,196Z" transform="translate(-27.1 -28.91)"/><path class="cls-2" d="M502.58,196l1.29-2.17a6.49,6.49,0,0,0,3.94,1.58c1.3,0,1.91-.5,1.91-1.21,0-1.86-6.74-.33-6.74-4.8,0-1.92,1.65-3.59,4.67-3.59a7.22,7.22,0,0,1,4.57,1.56l-1.2,2.12a4.91,4.91,0,0,0-3.37-1.32c-1.09,0-1.8.47-1.8,1.11,0,1.67,6.77.26,6.77,4.85,0,2.1-1.79,3.63-4.95,3.63A7.69,7.69,0,0,1,502.58,196Z" transform="translate(-27.1 -28.91)"/><path class="cls-2" d="M520.94,197.46V181.74h3.35v15.72Z" transform="translate(-27.1 -28.91)"/><path class="cls-2" d="M535,197.46v-6.88a1.84,1.84,0,0,0-2.1-2.12,3.32,3.32,0,0,0-2.59,1.32v7.68h-3V186.07h3v1.47a5.31,5.31,0,0,1,4-1.75c2.53,0,3.73,1.42,3.73,3.63v8Z" transform="translate(-27.1 -28.91)"/><path class="cls-2" d="M548.8,197.46V196a4.39,4.39,0,0,1-3.51,1.74c-2.86,0-5-2.16-5-6s2.15-6,5-6a4.33,4.33,0,0,1,3.51,1.75v-5.8h3v15.72Zm0-3.68v-4a3.26,3.26,0,0,0-2.57-1.29c-1.72,0-2.9,1.34-2.9,3.3s1.18,3.32,2.9,3.32A3.24,3.24,0,0,0,548.8,193.78Z" transform="translate(-27.1 -28.91)"/><path class="cls-2" d="M554.05,191.76a5.81,5.81,0,0,1,5.9-6c3.42,0,5.7,2.55,5.7,6.25v.71h-8.46a3,3,0,0,0,3.28,2.54,4.74,4.74,0,0,0,3-1.11l1.35,2a7.09,7.09,0,0,1-4.69,1.58A5.77,5.77,0,0,1,554.05,191.76Zm5.9-3.52a2.62,2.62,0,0,0-2.78,2.43h5.61A2.62,2.62,0,0,0,560,188.24Z" transform="translate(-27.1 -28.91)"/><path class="cls-2" d="M574.87,197.46l-2.6-3.84-2.61,3.84h-3.33l4.06-5.85-3.82-5.54h3.35l2.35,3.49,2.34-3.49H578l-3.8,5.54,4.05,5.85Z" transform="translate(-27.1 -28.91)"/><g class="cls-3"><path class="cls-2" d="M202.27,75c5.15,6.86,5.89,15,1.64,18.2s-11.85.2-17-6.66-11-20.7-6.78-23.88,17,5.49,22.14,12.34" transform="translate(-27.1 -28.91)"/><path class="cls-2" d="M123.67,28.93c6,.25,10.52,2.32,10.06,4.63s-5.71,4-11.73,3.72S106.07,35,106.54,32.74s11.11-4.06,17.13-3.81" transform="translate(-27.1 -28.91)"/><path class="cls-2" d="M59.27,54.82c5.16-5.33,10.6-8.57,12.15-7.24s-1.36,6.75-6.51,12.1-15,13.5-16.52,12.16,5.73-11.67,10.88-17" transform="translate(-27.1 -28.91)"/><path class="cls-2" d="M34.33,90.63c2.52-8.22,7.14-14.51,10.34-14.06s3.74,7.5,1.22,15.72-9,21.87-12.14,21.4-1.94-14.84.58-23.06" transform="translate(-27.1 -28.91)"/><path class="cls-2" d="M27.15,133.69c-.44-7.2,2.41-13.66,6.36-14.44s7.5,4.43,7.94,11.62S39.93,150.82,36,151.6s-8.4-10.71-8.83-17.91" transform="translate(-27.1 -28.91)"/><path class="cls-2" d="M38.93,179.4c-4.63-7.82-5-16.35-.67-19.06s11.5,1.45,16.14,9.26,9.6,22.94,5.33,25.65-16.17-8-20.8-15.85" transform="translate(-27.1 -28.91)"/><path class="cls-4" d="M112.88,229.63c-6-.33-10.55-2.4-10.08-4.65s5.76-3.79,11.8-3.48,16,2.39,15.51,4.64-11.19,3.81-17.23,3.49" transform="translate(-27.1 -28.91)"/><path class="cls-5" d="M112.88,229.63c-6-.33-10.55-2.4-10.08-4.65s5.76-3.79,11.8-3.48,16,2.39,15.51,4.64S118.92,230,112.88,229.63Z" transform="translate(-27.1 -28.91)"/><path class="cls-6" d="M146.9,225.14c-4.24,1.47-8,1.48-8.32,0s2.82-3.88,7-5.35,11.69-3,12-1.5-6.53,5.37-10.77,6.85" transform="translate(-27.1 -28.91)"/><path class="cls-4" d="M89.82,35.13c4.36-1.81,8.23-2.09,8.68-.64s-2.76,4.1-7.1,5.91-12,3.89-12.47,2.43,6.55-5.89,10.89-7.7" transform="translate(-27.1 -28.91)"/><path class="cls-5" d="M89.82,35.13c4.36-1.81,8.23-2.09,8.68-.64s-2.76,4.1-7.1,5.91-12,3.89-12.47,2.43S85.48,36.94,89.82,35.13Z" transform="translate(-27.1 -28.91)"/><path class="cls-6" d="M175.39,208.83c-4.58,4.16-9.64,6.17-11.28,4.47s.75-6.43,5.34-10.59,13.48-10.06,15.13-8.37-4.61,10.34-9.19,14.49" transform="translate(-27.1 -28.91)"/><path class="cls-2" d="M202.69,173.7c-3.95,8-9.6,13.77-12.62,12.77s-2.22-8.33,1.73-16.39,12.73-21,15.75-20-.89,15.61-4.86,23.66" transform="translate(-27.1 -28.91)"/><path class="cls-2" d="M216.12,122.36c1.11,8.51-2.18,16.52-7.35,17.86s-10.28-4.51-11.4-13,.52-23.94,5.71-25.27,11.93,11.89,13,20.44" transform="translate(-27.1 -28.91)"/><path class="cls-2" d="M73.32,215.46c-7.1-4-11.33-9.44-9.45-12.09s9.16-1.49,16.26,2.54,17.88,12.7,16,15.33-15.71-1.73-22.81-5.78" transform="translate(-27.1 -28.91)"/><path class="cls-2" d="M168.46,39.35C177,44,181.24,51.52,178,56.24s-12.77,4.82-21.29.23-20.78-15.66-17.53-20.38,20.79-1.34,29.3,3.26" transform="translate(-27.1 -28.91)"/><path class="cls-2" d="M140.41,76.78c.62-.07,5,2.06,5.69,3.12l.67,1c2.93,4.25,6.19,8.36,8.23,13a50.38,50.38,0,0,0,4.77,8.58c.45.64.27,1.84.79,2.26,1.77,1.41,3.82,2.48,5.6,3.89a15.08,15.08,0,0,1,2.36,2.92,34.58,34.58,0,0,0,2.38,3.24c.24.26,1.21-.07,1.81-.23.91-.24,1.79-.57,2.68-.85,2.19-.69,4.38-1.38,6.58-2a.83.83,0,0,1,.75.07,1,1,0,0,1,.25.78,12,12,0,0,1-.29,2.82c-.81,2.58-1.17,5.59-2.77,7.6-3.39,4.27-7.42,8-11.24,11.94-1.42,1.46-3,2.72-4.39,4.24-.72.8-.8,2.17-1.52,3-2.58,2.8-.58,5.74-.33,8.57.12,1.54,1.58,3,1.61,4.51.08,3.71,1.56,7.81-2.07,10.79-.85.69-2.05.93-2.9,1.59-2.18,1.75-4.26,3.6-6.35,5.44a.91.91,0,0,0,0,.89,5.42,5.42,0,0,1-1.86,8.77,4.38,4.38,0,0,0-2,2c-.57,1.25-.4,2.91-1.14,4a29.51,29.51,0,0,1-5.48,6.37,30.28,30.28,0,0,1-8.15,4.48,17.86,17.86,0,0,1-6.82.63,5.9,5.9,0,0,1-3.4-1.67c-.47-.43.16-1.87-.23-2.58-1.44-2.64-3.52-5-4.57-7.79-1.26-3.37-1.71-7-2.52-10.56a1.08,1.08,0,0,0-.13-.37,56.9,56.9,0,0,1-4.28-6.5,7.9,7.9,0,0,1-.58-4.88c.7-2.87,2.33-5.52,2.89-8.4a9.84,9.84,0,0,0-1-5.63c-1.65-3.49-3.25-7.2-5.78-10-1.79-2-3.7-3-2.46-6.05a10.36,10.36,0,0,0,.78-4.81c-.14-1.36-1.09-2.66-1.79-3.92-.12-.2-.9-.16-1.31-.05-2.8.71-5.57,1.56-6.15-2.8-.06-.48-1.45-1.27-2-1.12-3.08.78-6.12,1.81-9.16,2.77a9.63,9.63,0,0,1-2.27.76c-2.21.08-4.54-.49-6.59.06-4,1.06-11.46-2-13.33-5.8-1.23-2.46-2.69-4.81-4.05-7.21-.06-.08-.26-.06-.34-.16a12.36,12.36,0,0,1-1.9-2.21A17.39,17.39,0,0,1,56,108v-.23a3,3,0,0,0,.42-.16c1.77-1.14,4-8.57,3.13-10.46,0-.09-.14-.18-.14-.27,0-1-.24-2.2.23-2.94a41.26,41.26,0,0,1,4.62-6.14,59.62,59.62,0,0,1,5.71-5c.83-.69,1.9-1.09,2.66-1.84a17.38,17.38,0,0,0,1.93-2.73c1.17-1.76,2.19-3.64,3.51-5.27A35.48,35.48,0,0,1,82,69.31c.38-.33.87-.89,1.23-.83,1,.17,2.09,1,3,.83,3.31-.48,6.54-1.32,9.83-1.91,2.4-.44,4.84-.66,7.26-1,1.48-.21,3-.47,4.42-.71h.12c.13.85,2.11.85,1,2.25,0,0,.07.07.06.1-.09.86-.2,1.73-.32,2.59a9.68,9.68,0,0,0-.26,1.59c2.1.74,4.24,1.37,6.37,2a6.13,6.13,0,0,1,1.75.68c.69.53,1.15,1.4,1.89,1.82a10.8,10.8,0,0,0,3.21,1.19,6.08,6.08,0,0,0,2.6-.22c.18,0,0-1,.19-1.5.19-.66.34-1.57.82-1.87,2.59-1.61,4.85.23,7.26.82a49.86,49.86,0,0,0,7.9,1.53" transform="translate(-27.1 -28.91)"/></g></svg>